<svg width="17" height="13" viewBox="0 0 17 13" fill="none" xmlns="http://www.w3.org/2000/svg">
<path d="M4.36527 11.2505C3.16832 10.1349 2.50969 8.62584 2.50967 6.99992C2.50969 5.37414 3.16832 3.8651 4.36527 2.74951L4.29709 2.67636L4.36528 2.74951C4.46894 2.65289 4.52139 2.52169 4.52139 2.39052C4.52139 2.27084 4.47774 2.1506 4.38969 2.0561L4.38967 2.05608C4.20492 1.85788 3.89448 1.84693 3.69626 2.03168C2.29868 3.33427 1.52844 5.09913 1.52842 7.00006C1.52844 8.90082 2.29868 10.6657 3.69625 11.9683L3.69626 11.9683C3.89447 12.153 4.20493 12.1421 4.38968 11.9439L4.38969 11.9439C4.5744 11.7457 4.56352 11.4352 4.36527 11.2505ZM4.36527 11.2505L4.29709 11.3236L4.36527 11.2505Z" fill="#9BA6B1" stroke="#9BA6B1" stroke-width="0.2"/>
<path d="M5.30726 10.532L5.37726 10.4614L5.30726 10.532C5.49961 10.7228 5.81025 10.7216 6.0011 10.5293C6.19195 10.3369 6.19075 10.0263 5.9984 9.83541C5.20893 9.05207 4.77629 8.045 4.77627 7.00008C4.77623 5.95545 5.20888 4.94838 5.99845 4.16473L5.99846 4.16472C6.09506 4.06883 6.14346 3.94252 6.14346 3.81649C6.14346 3.69171 6.09599 3.56654 6.00107 3.47086L6.00105 3.47084C5.81017 3.27854 5.49954 3.27737 5.30721 3.46824L5.37766 3.53922L5.30721 3.46824C4.33322 4.43494 3.79498 5.68917 3.79502 7.00009C3.79504 8.31129 4.33329 9.56555 5.30726 10.532Z" fill="#9BA6B1" stroke="#9BA6B1" stroke-width="0.2"/>
<path d="M6.92441 9.00398L6.92441 9.00398C7.11512 9.19645 7.42576 9.1979 7.61825 9.0072L7.61826 9.00719C7.71506 8.91127 7.76358 8.78482 7.76358 8.65865C7.76358 8.53401 7.71623 8.409 7.62149 8.31337C7.27939 7.96808 7.06045 7.46221 7.06045 7.03234L7.06045 7.03234L7.06045 7.03234L7.06045 7.03233L7.06045 7.03233L7.06045 7.03233L7.06045 7.03233L7.06045 7.03233L7.06045 7.03232L7.06045 7.03232L7.06045 7.03232L7.06045 7.03232L7.06045 7.03232L7.06045 7.03231L7.06045 7.03231L7.06045 7.03231L7.06045 7.03231L7.06045 7.03231L7.06045 7.0323L7.06045 7.0323L7.06045 7.0323L7.06045 7.0323L7.06045 7.0323L7.06045 7.03229L7.06045 7.03229L7.06045 7.03229L7.06045 7.03229L7.06045 7.03229L7.06045 7.03228L7.06045 7.03228L7.06045 7.03228L7.06045 7.03228L7.06045 7.03228L7.06045 7.03227L7.06045 7.03227L7.06045 7.03227L7.06045 7.03227L7.06045 7.03227L7.06045 7.03226L7.06045 7.03226L7.06045 7.03226L7.06045 7.03226L7.06045 7.03226L7.06045 7.03225L7.06045 7.03225L7.06045 7.03225L7.06045 7.03225L7.06045 7.03225L7.06045 7.03224L7.06045 7.03224L7.06045 7.03224L7.06045 7.03224L7.06045 7.03224L7.06045 7.03223L7.06045 7.03223L7.06045 7.03223L7.06045 7.03223L7.06045 7.03223L7.06045 7.03222L7.06045 7.03222L7.06045 7.03222L7.06045 7.03222L7.06045 7.03222L7.06045 7.03221L7.06045 7.03221L7.06045 7.03221L7.06045 7.03221L7.06045 7.03221L7.06045 7.03221L7.06045 7.0322L7.06045 7.0322L7.06045 7.0322L7.06045 7.0322L7.06045 7.0322L7.06045 7.03219L7.06045 7.03219L7.06045 7.03219L7.06045 7.03219L7.06045 7.03219L7.06045 7.03218L7.06045 7.03218L7.06045 7.03218L7.06045 7.03218L7.06045 7.03218L7.06045 7.03217L7.06045 7.03217L7.06045 7.03217L7.06045 7.03217L7.06045 7.03217L7.06045 7.03216L7.06045 7.03216L7.06045 7.03216L7.06045 7.03216L7.06045 7.03216L7.06045 7.03215L7.06045 7.03215L7.06045 7.03215L7.06045 7.03215L7.06045 7.03215L7.06045 7.00388L7.06045 7.00388L7.06045 7.00388L7.06045 7.00388L7.06045 7.00388L7.06045 7.00387L7.06045 7.00387L7.06045 7.00387L7.06045 7.00387L7.06045 7.00386L7.06045 7.00386L7.06045 7.00386L7.06045 7.00386L7.06045 7.00386L7.06045 7.00385L7.06045 7.00385L7.06045 7.00385L7.06045 7.00385L7.06045 7.00385L7.06045 7.00384L7.06045 7.00384L7.06045 7.00384L7.06045 7.00384L7.06045 7.00384L7.06045 7.00383L7.06045 7.00383L7.06045 7.00383L7.06045 7.00383L7.06045 7.00383L7.06045 7.00383L7.06045 7.00382L7.06045 7.00382L7.06045 7.00382L7.06045 7.00382L7.06045 7.00381L7.06045 7.00381L7.06045 7.00381L7.06045 7.00381L7.06045 7.00381L7.06045 7.00381L7.06045 7.0038L7.06045 7.0038L7.06045 7.0038L7.06045 7.0038L7.06045 7.0038L7.06045 7.00379L7.06045 7.00379L7.06045 7.00379L7.06045 7.00379L7.06045 7.00379L7.06045 7.00378L7.06045 7.00378L7.06045 7.00378L7.06045 7.00378L7.06045 7.00378L7.06045 7.00377L7.06045 7.00377L7.06045 7.00377L7.06045 7.00377L7.06045 7.00377L7.06045 7.00376L7.06045 7.00376L7.06045 7.00376L7.06045 7.00376L7.06045 7.00376L7.06045 7.00375L7.06045 7.00375L7.06045 7.00375L7.06045 7.00375L7.06045 7.00375L7.06045 7.00374L7.06045 7.00374L7.06045 7.00374L7.06045 7.00374L7.06045 7.00374L7.06045 7.00373L7.06045 7.00373L7.06045 7.00373L7.06045 7.00373L7.06045 7.00373L7.06045 7.00372L7.06045 7.00372L7.06045 7.00372L7.06045 7.00372L7.06045 7.00372L7.06045 7.00371L7.06045 7.00371L7.06045 7.00371L7.06045 7.00371C7.06045 6.57389 7.27941 6.06799 7.62149 5.72274L7.62149 5.72273C7.81215 5.53028 7.81081 5.21961 7.61826 5.0289C7.42578 4.83816 7.11511 4.83961 6.92441 5.03211C6.40393 5.55746 6.0792 6.31065 6.0792 7.00365L6.0792 7.00365L6.0792 7.00365L6.0792 7.00366L6.0792 7.00366L6.0792 7.00366L6.0792 7.00366L6.0792 7.00366L6.0792 7.00366L6.0792 7.00367L6.0792 7.00367L6.0792 7.00367L6.0792 7.00367L6.0792 7.00368L6.0792 7.00368L6.0792 7.00368L6.0792 7.00368L6.0792 7.00368L6.0792 7.00369L6.0792 7.00369L6.0792 7.00369L6.0792 7.00369L6.0792 7.00369L6.0792 7.0037L6.0792 7.0037L6.0792 7.0037L6.0792 7.0037L6.0792 7.00371L6.0792 7.00371L6.0792 7.00371L6.0792 7.00371L6.0792 7.00371L6.0792 7.00372L6.0792 7.00372L6.0792 7.00372L6.0792 7.00372L6.0792 7.00373L6.0792 7.00373L6.0792 7.00373L6.0792 7.00373L6.0792 7.00373L6.0792 7.00374L6.0792 7.00374L6.0792 7.00374L6.0792 7.00374L6.0792 7.00375L6.0792 7.00375L6.0792 7.00375L6.0792 7.00375L6.0792 7.00375L6.0792 7.00376L6.0792 7.00376L6.0792 7.00376L6.0792 7.00376L6.0792 7.00376L6.0792 7.00377L6.0792 7.00377L6.0792 7.00377L6.0792 7.00377L6.0792 7.00377L6.0792 7.00378L6.0792 7.00378L6.0792 7.00378L6.0792 7.00378L6.0792 7.00378L6.0792 7.00379L6.0792 7.00379L6.0792 7.00379L6.0792 7.00379L6.0792 7.00379L6.0792 7.0038L6.0792 7.0038L6.0792 7.0038L6.0792 7.0038L6.0792 7.0038L6.0792 7.00381L6.0792 7.00381L6.0792 7.00381L6.0792 7.00381L6.0792 7.00381L6.0792 7.00382L6.0792 7.00382L6.0792 7.00382L6.0792 7.00382L6.0792 7.00382L6.0792 7.00383L6.0792 7.00383L6.0792 7.00383L6.0792 7.00383L6.0792 7.00383L6.0792 7.00384L6.0792 7.00384L6.0792 7.00384L6.0792 7.00384L6.0792 7.00384L6.0792 7.00385L6.0792 7.00385L6.0792 7.00385L6.0792 7.00385L6.0792 7.00386L6.0792 7.00386L6.0792 7.00386L6.0792 7.00386L6.0792 7.00387L6.0792 7.00387L6.0792 7.00387L6.0792 7.00387L6.0792 7.00388L6.0792 7.00388L6.0792 7.00388L6.0792 7.00388L6.0792 7.00388L6.0792 7.00389L6.0792 7.00389L6.0792 7.00389L6.0792 7.00389L6.0792 7.00389L6.0792 7.0039L6.0792 7.0039L6.0792 7.0039L6.0792 7.0039L6.0792 7.0039L6.0792 7.00391L6.0792 7.00391L6.0792 7.00391L6.0792 7.00391L6.0792 7.00392L6.0792 7.00392L6.0792 7.00392L6.0792 7.00392L6.0792 7.00392L6.0792 7.00393L6.0792 7.00393L6.0792 7.00393L6.0792 7.00393L6.0792 7.00393L6.0792 7.00394L6.0792 7.00394L6.0792 7.00394L6.0792 7.00394L6.0792 7.03209L6.0792 7.03209L6.0792 7.03209L6.0792 7.03209L6.0792 7.03209L6.0792 7.0321L6.0792 7.0321L6.0792 7.0321L6.0792 7.0321L6.0792 7.0321L6.0792 7.03211L6.0792 7.03211L6.0792 7.03211L6.0792 7.03211L6.0792 7.03211L6.0792 7.03212L6.0792 7.03212L6.0792 7.03212L6.0792 7.03212L6.0792 7.03212L6.0792 7.03213L6.0792 7.03213L6.0792 7.03213L6.0792 7.03213L6.0792 7.03213L6.0792 7.03214L6.0792 7.03214L6.0792 7.03214L6.0792 7.03214L6.0792 7.03215L6.0792 7.03215L6.0792 7.03215L6.0792 7.03215L6.0792 7.03216L6.0792 7.03216L6.0792 7.03216L6.0792 7.03216L6.0792 7.03216L6.0792 7.03217L6.0792 7.03217L6.0792 7.03217L6.0792 7.03217L6.0792 7.03218L6.0792 7.03218L6.0792 7.03218L6.0792 7.03218L6.0792 7.03218L6.0792 7.03219L6.0792 7.03219L6.0792 7.03219L6.0792 7.03219L6.0792 7.03219L6.0792 7.0322L6.0792 7.0322L6.0792 7.0322L6.0792 7.0322L6.0792 7.03221L6.0792 7.03221L6.0792 7.03221L6.0792 7.03221L6.0792 7.03221L6.0792 7.03222L6.0792 7.03222L6.0792 7.03222L6.0792 7.03222L6.0792 7.03222L6.0792 7.03223L6.0792 7.03223L6.0792 7.03223L6.0792 7.03223L6.0792 7.03223L6.0792 7.03224L6.0792 7.03224L6.0792 7.03224L6.0792 7.03224L6.0792 7.03224L6.0792 7.03225L6.0792 7.03225L6.0792 7.03225L6.0792 7.03225L6.0792 7.03225L6.0792 7.03226L6.0792 7.03226L6.0792 7.03226L6.0792 7.03226L6.0792 7.03227L6.0792 7.03227L6.0792 7.03227L6.0792 7.03227L6.0792 7.03227L6.0792 7.03228L6.0792 7.03228L6.0792 7.03228L6.0792 7.03228L6.0792 7.03228L6.0792 7.03229L6.0792 7.03229L6.0792 7.03229L6.0792 7.03229L6.0792 7.0323L6.0792 7.0323L6.0792 7.0323L6.0792 7.0323L6.0792 7.0323L6.0792 7.03231L6.0792 7.03231L6.0792 7.03231L6.0792 7.03231L6.0792 7.03232L6.0792 7.03232L6.0792 7.03232L6.0792 7.03232L6.0792 7.03232L6.0792 7.03233L6.0792 7.03233L6.0792 7.03233L6.0792 7.03233L6.0792 7.03234L6.0792 7.03234L6.0792 7.03234L6.0792 7.03234L6.0792 7.03234L6.0792 7.03235L6.0792 7.03235L6.0792 7.03235L6.0792 7.03235L6.0792 7.03235L6.0792 7.03236L6.0792 7.03236L6.0792 7.03236L6.0792 7.03236L6.0792 7.03236L6.0792 7.03237L6.0792 7.03237L6.0792 7.03237L6.0792 7.03237L6.0792 7.03237L6.0792 7.03238L6.0792 7.03238L6.0792 7.03238C6.0792 7.7254 6.40395 8.47865 6.92441 9.00398Z" fill="#9BA6B1" stroke="#9BA6B1" stroke-width="0.2"/>
<path d="M13.8156 2.7495C15.0126 3.8651 15.6712 5.37413 15.6712 7.00005C15.6712 8.62583 15.0126 10.1349 13.8156 11.2505L13.8838 11.3236L13.8156 11.2505C13.712 11.3471 13.6595 11.4783 13.6595 11.6095C13.6595 11.7291 13.7032 11.8494 13.7912 11.9439L13.7912 11.9439C13.976 12.1421 14.2864 12.153 14.4847 11.9683C15.8822 10.6657 16.6525 8.90084 16.6525 6.99991C16.6525 5.09914 15.8822 3.33428 14.4847 2.03167L14.4846 2.03167C14.2864 1.84695 13.976 1.85787 13.7912 2.05608L13.7912 2.05609C13.6065 2.25431 13.6174 2.56475 13.8156 2.7495ZM13.8156 2.7495L13.8838 2.67635L13.8156 2.7495Z" fill="#9BA6B1" stroke="#9BA6B1" stroke-width="0.2"/>
<path d="M12.8736 3.46801L12.8036 3.53856L12.8736 3.46801C12.6813 3.27716 12.3707 3.27836 12.1798 3.47071C11.989 3.66306 11.9902 3.9737 12.1825 4.16456C12.972 4.9479 13.4046 5.95497 13.4046 6.99989C13.4047 8.04452 12.972 9.05159 12.1825 9.83524L12.1825 9.83524C12.0858 9.93114 12.0375 10.0575 12.0375 10.1835C12.0375 10.3083 12.0849 10.4334 12.1798 10.5291L12.1799 10.5291C12.3707 10.7214 12.6814 10.7226 12.8737 10.5317L12.8033 10.4607L12.8737 10.5317C13.8477 9.56503 14.3859 8.3108 14.3859 6.99988C14.3859 5.68868 13.8476 4.43442 12.8736 3.46801Z" fill="#9BA6B1" stroke="#9BA6B1" stroke-width="0.2"/>
<path d="M11.2565 4.99599L11.2565 4.99599C11.0658 4.80351 10.7552 4.80207 10.5627 4.99277L10.5626 4.99278C10.4659 5.0887 10.4173 5.21515 10.4173 5.34131C10.4173 5.46596 10.4647 5.59097 10.5594 5.6866C10.9015 6.03189 11.1205 6.53775 11.1205 6.96763L11.1205 6.96763L11.1205 6.96763L11.1205 6.96763L11.1205 6.96764L11.1205 6.96764L11.1205 6.96764L11.1205 6.96764L11.1205 6.96765L11.1205 6.96765L11.1205 6.96765L11.1205 6.96765L11.1205 6.96765L11.1205 6.96766L11.1205 6.96766L11.1205 6.96766L11.1205 6.96766L11.1205 6.96766L11.1205 6.96767L11.1205 6.96767L11.1205 6.96767L11.1205 6.96767L11.1205 6.96767L11.1205 6.96768L11.1205 6.96768L11.1205 6.96768L11.1205 6.96768L11.1205 6.96768L11.1205 6.96768L11.1205 6.96769L11.1205 6.96769L11.1205 6.96769L11.1205 6.96769L11.1205 6.96769L11.1205 6.9677L11.1205 6.9677L11.1205 6.9677L11.1205 6.9677L11.1205 6.9677L11.1205 6.96771L11.1205 6.96771L11.1205 6.96771L11.1205 6.96771L11.1205 6.96771L11.1205 6.96772L11.1205 6.96772L11.1205 6.96772L11.1205 6.96772L11.1205 6.96772L11.1205 6.96773L11.1205 6.96773L11.1205 6.96773L11.1205 6.96773L11.1205 6.96773L11.1205 6.96774L11.1205 6.96774L11.1205 6.96774L11.1205 6.96774L11.1205 6.96774L11.1205 6.96775L11.1205 6.96775L11.1205 6.96775L11.1205 6.96775L11.1205 6.96775L11.1205 6.96776L11.1205 6.96776L11.1205 6.96776L11.1205 6.96776L11.1205 6.96776L11.1205 6.96777L11.1205 6.96777L11.1205 6.96777L11.1205 6.96777L11.1205 6.96777L11.1205 6.96778L11.1205 6.96778L11.1205 6.96778L11.1205 6.96778L11.1205 6.96778L11.1205 6.96779L11.1205 6.96779L11.1205 6.96779L11.1205 6.96779L11.1205 6.96779L11.1205 6.9678L11.1205 6.9678L11.1205 6.9678L11.1205 6.9678L11.1205 6.9678L11.1205 6.96781L11.1205 6.96781L11.1205 6.96781L11.1205 6.96781L11.1205 6.96781L11.1205 6.96782L11.1205 6.96782L11.1205 6.96782L11.1205 6.96782L11.1205 6.96782L11.1205 6.99609L11.1205 6.99609L11.1205 6.99609L11.1205 6.99609L11.1205 6.99609L11.1205 6.9961L11.1205 6.9961L11.1205 6.9961L11.1205 6.9961L11.1205 6.9961L11.1205 6.99611L11.1205 6.99611L11.1205 6.99611L11.1205 6.99611L11.1205 6.99611L11.1205 6.99612L11.1205 6.99612L11.1205 6.99612L11.1205 6.99612L11.1205 6.99612L11.1205 6.99613L11.1205 6.99613L11.1205 6.99613L11.1205 6.99613L11.1205 6.99613L11.1205 6.99614L11.1205 6.99614L11.1205 6.99614L11.1205 6.99614L11.1205 6.99614L11.1205 6.99615L11.1205 6.99615L11.1205 6.99615L11.1205 6.99615L11.1205 6.99615L11.1205 6.99616L11.1205 6.99616L11.1205 6.99616L11.1205 6.99616L11.1205 6.99616L11.1205 6.99617L11.1205 6.99617L11.1205 6.99617L11.1205 6.99617L11.1205 6.99617L11.1205 6.99618L11.1205 6.99618L11.1205 6.99618L11.1205 6.99618L11.1205 6.99618L11.1205 6.99619L11.1205 6.99619L11.1205 6.99619L11.1205 6.99619L11.1205 6.99619L11.1205 6.9962L11.1205 6.9962L11.1205 6.9962L11.1205 6.9962L11.1205 6.9962L11.1205 6.99621L11.1205 6.99621L11.1205 6.99621L11.1205 6.99621L11.1205 6.99621L11.1205 6.99622L11.1205 6.99622L11.1205 6.99622L11.1205 6.99622L11.1205 6.99622L11.1205 6.99623L11.1205 6.99623L11.1205 6.99623L11.1205 6.99623L11.1205 6.99623L11.1205 6.99624L11.1205 6.99624L11.1205 6.99624L11.1205 6.99624L11.1205 6.99624L11.1205 6.99625L11.1205 6.99625L11.1205 6.99625L11.1205 6.99625L11.1205 6.99625L11.1205 6.99626L11.1205 6.99626L11.1205 6.99626L11.1205 6.99626C11.1205 7.42608 10.9015 7.93198 10.5594 8.27723L10.5594 8.27723C10.3688 8.46969 10.3701 8.78036 10.5626 8.97107C10.7551 9.16181 11.0658 9.16036 11.2565 8.96786C11.777 8.44251 12.1017 7.68932 12.1017 6.99632L12.1017 6.99632L12.1017 6.99632L12.1017 6.99631L12.1017 6.99631L12.1017 6.99631L12.1017 6.99631L12.1017 6.99631L12.1017 6.9963L12.1017 6.9963L12.1017 6.9963L12.1017 6.9963L12.1017 6.9963L12.1017 6.99629L12.1017 6.99629L12.1017 6.99629L12.1017 6.99629L12.1017 6.99629L12.1017 6.99628L12.1017 6.99628L12.1017 6.99628L12.1017 6.99628L12.1017 6.99627L12.1017 6.99627L12.1017 6.99627L12.1017 6.99627L12.1017 6.99627L12.1017 6.99626L12.1017 6.99626L12.1017 6.99626L12.1017 6.99626L12.1017 6.99626L12.1017 6.99625L12.1017 6.99625L12.1017 6.99625L12.1017 6.99625L12.1017 6.99624L12.1017 6.99624L12.1017 6.99624L12.1017 6.99624L12.1017 6.99623L12.1017 6.99623L12.1017 6.99623L12.1017 6.99623L12.1017 6.99623L12.1017 6.99622L12.1017 6.99622L12.1017 6.99622L12.1017 6.99622L12.1017 6.99622L12.1017 6.99621L12.1017 6.99621L12.1017 6.99621L12.1017 6.99621L12.1017 6.9962L12.1017 6.9962L12.1017 6.9962L12.1017 6.9962L12.1017 6.9962L12.1017 6.99619L12.1017 6.99619L12.1017 6.99619L12.1017 6.99619L12.1017 6.99619L12.1017 6.99619L12.1017 6.99618L12.1017 6.99618L12.1017 6.99618L12.1017 6.99618L12.1017 6.99618L12.1017 6.99617L12.1017 6.99617L12.1017 6.99617L12.1017 6.99617L12.1017 6.99617L12.1017 6.99616L12.1017 6.99616L12.1017 6.99616L12.1017 6.99616L12.1017 6.99616L12.1017 6.99615L12.1017 6.99615L12.1017 6.99615L12.1017 6.99615L12.1017 6.99615L12.1017 6.99614L12.1017 6.99614L12.1017 6.99614L12.1017 6.99614L12.1017 6.99613L12.1017 6.99613L12.1017 6.99613L12.1017 6.99613L12.1017 6.99613L12.1017 6.99612L12.1017 6.99612L12.1017 6.99612L12.1017 6.99612L12.1017 6.99612L12.1017 6.99611L12.1017 6.99611L12.1017 6.99611L12.1017 6.99611L12.1017 6.9961L12.1017 6.9961L12.1017 6.9961L12.1017 6.9961L12.1017 6.99609L12.1017 6.99609L12.1017 6.99609L12.1017 6.99609L12.1017 6.99609L12.1017 6.99608L12.1017 6.99608L12.1017 6.99608L12.1017 6.99608L12.1017 6.99608L12.1017 6.99607L12.1017 6.99607L12.1017 6.99607L12.1017 6.99607L12.1017 6.99606L12.1017 6.99606L12.1017 6.99606L12.1017 6.99606L12.1017 6.99606L12.1017 6.99605L12.1017 6.99605L12.1017 6.99605L12.1017 6.99605L12.1017 6.99605L12.1017 6.99604L12.1017 6.99604L12.1017 6.99604L12.1017 6.99604L12.1017 6.99604L12.1017 6.99603L12.1017 6.99603L12.1017 6.99603L12.1017 6.99603L12.1017 6.96788L12.1017 6.96788L12.1017 6.96788L12.1017 6.96788L12.1017 6.96787L12.1017 6.96787L12.1017 6.96787L12.1017 6.96787L12.1017 6.96787L12.1017 6.96786L12.1017 6.96786L12.1017 6.96786L12.1017 6.96786L12.1017 6.96786L12.1017 6.96786L12.1017 6.96785L12.1017 6.96785L12.1017 6.96785L12.1017 6.96785L12.1017 6.96785L12.1017 6.96784L12.1017 6.96784L12.1017 6.96784L12.1017 6.96784L12.1017 6.96783L12.1017 6.96783L12.1017 6.96783L12.1017 6.96783L12.1017 6.96783L12.1017 6.96782L12.1017 6.96782L12.1017 6.96782L12.1017 6.96782L12.1017 6.96781L12.1017 6.96781L12.1017 6.96781L12.1017 6.96781L12.1017 6.96781L12.1017 6.9678L12.1017 6.9678L12.1017 6.9678L12.1017 6.9678L12.1017 6.96779L12.1017 6.96779L12.1017 6.96779L12.1017 6.96779L12.1017 6.96779L12.1017 6.96778L12.1017 6.96778L12.1017 6.96778L12.1017 6.96778L12.1017 6.96777L12.1017 6.96777L12.1017 6.96777L12.1017 6.96777L12.1017 6.96777L12.1017 6.96776L12.1017 6.96776L12.1017 6.96776L12.1017 6.96776L12.1017 6.96776L12.1017 6.96775L12.1017 6.96775L12.1017 6.96775L12.1017 6.96775L12.1017 6.96775L12.1017 6.96774L12.1017 6.96774L12.1017 6.96774L12.1017 6.96774L12.1017 6.96774L12.1017 6.96773L12.1017 6.96773L12.1017 6.96773L12.1017 6.96773L12.1017 6.96773L12.1017 6.96772L12.1017 6.96772L12.1017 6.96772L12.1017 6.96772L12.1017 6.96771L12.1017 6.96771L12.1017 6.96771L12.1017 6.96771L12.1017 6.96771L12.1017 6.9677L12.1017 6.9677L12.1017 6.9677L12.1017 6.9677L12.1017 6.9677L12.1017 6.96769L12.1017 6.96769L12.1017 6.96769L12.1017 6.96769L12.1017 6.96768L12.1017 6.96768L12.1017 6.96768L12.1017 6.96768L12.1017 6.96768L12.1017 6.96767L12.1017 6.96767L12.1017 6.96767L12.1017 6.96767L12.1017 6.96767L12.1017 6.96766L12.1017 6.96766L12.1017 6.96766L12.1017 6.96766L12.1017 6.96765L12.1017 6.96765L12.1017 6.96765L12.1017 6.96765L12.1017 6.96765L12.1017 6.96764L12.1017 6.96764L12.1017 6.96764L12.1017 6.96764L12.1017 6.96763L12.1017 6.96763L12.1017 6.96763L12.1017 6.96763L12.1017 6.96763L12.1017 6.96762L12.1017 6.96762L12.1017 6.96762L12.1017 6.96762L12.1017 6.96762L12.1017 6.96761L12.1017 6.96761L12.1017 6.96761L12.1017 6.96761L12.1017 6.96761L12.1017 6.9676L12.1017 6.9676L12.1017 6.9676L12.1017 6.9676L12.1017 6.9676L12.1017 6.96759L12.1017 6.96759L12.1017 6.96759C12.1017 6.27457 11.777 5.52132 11.2565 4.99599Z" fill="#9BA6B1" stroke="#9BA6B1" stroke-width="0.2"/>
</svg>
