<svg width="24" height="24" viewBox="0 0 24 24" fill="none" xmlns="http://www.w3.org/2000/svg">
    <path d="M23.7903 22.7761L17.9579 16.9437C19.5225 15.145 20.4697 12.7982 20.4697 10.2333C20.4697 4.58714 15.8772 0 10.2364 0C4.59031 0 0.00317383 4.59246 0.00317383 10.2333C0.00317383 15.8741 4.59564 20.4665 10.2364 20.4665C12.8014 20.4665 15.1482 19.5193 16.9469 17.9548L22.7792 23.7871C22.9176 23.9255 23.1038 24 23.2848 24C23.4657 24 23.652 23.9308 23.7903 23.7871C24.067 23.5104 24.067 23.0528 23.7903 22.7761ZM1.43466 10.2333C1.43466 5.38004 5.38322 1.43681 10.2311 1.43681C15.0843 1.43681 19.0276 5.38537 19.0276 10.2333C19.0276 15.0812 15.0843 19.035 10.2311 19.035C5.38322 19.035 1.43466 15.0865 1.43466 10.2333Z" fill="#5A8AFF"/>
</svg>
