<svg width="32" height="41" viewBox="0 0 32 41" fill="none" xmlns="http://www.w3.org/2000/svg">
<path d="M25.8939 6.4404L25.8976 6.44393L27.9905 8.43218C28.8847 9.28175 29.3911 10.4612 29.3911 11.6947V35C29.3911 37.4853 27.3764 39.5 24.8911 39.5H6C3.51472 39.5 1.5 37.4853 1.5 35V7C1.5 4.51472 3.51472 2.5 6 2.5H19.9687C21.1276 2.5 22.2418 2.94708 23.0792 3.74811L25.8939 6.4404Z" stroke="#99A5B0" stroke-width="3"/>
<path d="M8.44965 31.7344H9.32856V34.6875C9.32856 34.959 9.26801 35.1992 9.14691 35.4082C9.02777 35.6152 8.85883 35.7754 8.64008 35.8887C8.42133 36.002 8.17426 36.0586 7.89887 36.0586C7.4477 36.0586 7.09613 35.9443 6.84418 35.7158C6.59223 35.4854 6.46625 35.1602 6.46625 34.7402H7.35102C7.35102 34.9492 7.39496 35.1035 7.48285 35.2031C7.57074 35.3027 7.70941 35.3525 7.89887 35.3525C8.06684 35.3525 8.20063 35.2949 8.30023 35.1797C8.39984 35.0645 8.44965 34.9004 8.44965 34.6875V31.7344ZM13.2534 34.8809C13.2534 34.7148 13.1948 34.5879 13.0776 34.5C12.9604 34.4102 12.7495 34.3164 12.4448 34.2188C12.1401 34.1191 11.8989 34.0215 11.7212 33.9258C11.2368 33.6641 10.9946 33.3115 10.9946 32.8682C10.9946 32.6377 11.0591 32.4326 11.188 32.2529C11.3188 32.0713 11.5054 31.9297 11.7475 31.8281C11.9917 31.7266 12.2651 31.6758 12.5679 31.6758C12.8725 31.6758 13.144 31.7314 13.3823 31.8428C13.6206 31.9521 13.8052 32.1074 13.936 32.3086C14.0688 32.5098 14.1352 32.7383 14.1352 32.9941H13.2563C13.2563 32.7988 13.1948 32.6475 13.0718 32.54C12.9487 32.4307 12.7759 32.376 12.5532 32.376C12.3384 32.376 12.1714 32.4219 12.0522 32.5137C11.9331 32.6035 11.8735 32.7227 11.8735 32.8711C11.8735 33.0098 11.9429 33.126 12.0815 33.2197C12.2221 33.3135 12.4282 33.4014 12.6997 33.4834C13.1997 33.6338 13.5639 33.8203 13.7925 34.043C14.021 34.2656 14.1352 34.543 14.1352 34.875C14.1352 35.2441 13.9956 35.5342 13.7163 35.7451C13.437 35.9541 13.061 36.0586 12.5884 36.0586C12.2602 36.0586 11.9614 35.999 11.6919 35.8799C11.4223 35.7588 11.2163 35.5938 11.0737 35.3848C10.9331 35.1758 10.8628 34.9336 10.8628 34.6582H11.7446C11.7446 35.1289 12.0259 35.3643 12.5884 35.3643C12.7973 35.3643 12.9604 35.3223 13.0776 35.2383C13.1948 35.1523 13.2534 35.0332 13.2534 34.8809ZM19.1968 33.9639C19.1968 34.3838 19.1226 34.752 18.9741 35.0684C18.8257 35.3848 18.6128 35.6289 18.3355 35.8008C18.0601 35.9727 17.7437 36.0586 17.3863 36.0586C17.0327 36.0586 16.7173 35.9736 16.44 35.8037C16.1626 35.6338 15.9478 35.3916 15.7954 35.0771C15.6431 34.7607 15.5659 34.3975 15.564 33.9873V33.7764C15.564 33.3564 15.6392 32.9873 15.7896 32.6689C15.9419 32.3486 16.1558 32.1035 16.4312 31.9336C16.7085 31.7617 17.0249 31.6758 17.3804 31.6758C17.7359 31.6758 18.0513 31.7617 18.3267 31.9336C18.604 32.1035 18.8179 32.3486 18.9683 32.6689C19.1206 32.9873 19.1968 33.3555 19.1968 33.7734V33.9639ZM18.3062 33.7705C18.3062 33.3232 18.2261 32.9834 18.0659 32.751C17.9058 32.5186 17.6773 32.4023 17.3804 32.4023C17.0855 32.4023 16.8579 32.5176 16.6978 32.748C16.5376 32.9766 16.4566 33.3125 16.4546 33.7559V33.9639C16.4546 34.3994 16.5347 34.7373 16.6948 34.9775C16.855 35.2178 17.0855 35.3379 17.3863 35.3379C17.6812 35.3379 17.9077 35.2227 18.0659 34.9922C18.2241 34.7598 18.3042 34.4219 18.3062 33.9785V33.7705ZM24.2642 36H23.3853L21.6744 33.1934V36H20.7955V31.7344H21.6744L23.3882 34.5469V31.7344H24.2642V36Z" fill="#99A5B0"/>
<path d="M12.0076 24.5945C10.6287 24.2078 9.92555 23.327 9.8982 21.952V20.7039C9.8982 19.825 9.52125 19.3855 8.76734 19.3855V18.3426C9.52125 18.3426 9.8982 17.9012 9.8982 17.0184V15.7762C9.90992 15.073 10.0916 14.5047 10.4431 14.0711C10.7986 13.6375 11.3201 13.323 12.0076 13.1277L12.2888 13.948C11.613 14.1668 11.2634 14.7645 11.24 15.741V17.0066C11.24 17.8855 10.9021 18.5027 10.2263 18.8582C10.9021 19.2176 11.24 19.8406 11.24 20.7273V21.9754C11.2634 22.952 11.613 23.5496 12.2888 23.7684L12.0076 24.5945ZM16.1546 22.4852H14.7308V16.1453H16.1546V22.4852ZM14.6429 14.4988C14.6429 14.2801 14.7112 14.0984 14.848 13.9539C14.9886 13.8094 15.1878 13.7371 15.4456 13.7371C15.7034 13.7371 15.9027 13.8094 16.0433 13.9539C16.1839 14.0984 16.2542 14.2801 16.2542 14.4988C16.2542 14.7137 16.1839 14.8934 16.0433 15.0379C15.9027 15.1785 15.7034 15.2488 15.4456 15.2488C15.1878 15.2488 14.9886 15.1785 14.848 15.0379C14.7112 14.8934 14.6429 14.7137 14.6429 14.4988ZM18.579 23.7684C19.2665 23.5457 19.618 22.9363 19.6337 21.9402V20.7215C19.6337 19.8191 19.9891 19.2 20.7001 18.8641C19.9891 18.5281 19.6337 17.9031 19.6337 16.9891V15.7762C19.618 14.7801 19.2665 14.1707 18.579 13.948L18.8602 13.1277C19.5712 13.327 20.1005 13.6512 20.4481 14.1004C20.7958 14.5457 20.9696 15.1297 20.9696 15.8523V17.0242C20.9696 17.9031 21.3485 18.3426 22.1063 18.3426V19.3855C21.3485 19.3855 20.9696 19.825 20.9696 20.7039V21.8582C20.9696 22.5887 20.7938 23.1766 20.4423 23.6219C20.0946 24.0711 19.5673 24.3953 18.8602 24.5945L18.579 23.7684Z" fill="#99A5B0"/>
<path d="M20.5 2L20.5 8.5C20.5 10.1568 21.8431 11.5 23.5 11.5L30 11.5" stroke="#99A5B0" stroke-width="3"/>
<line x1="1.18823" y1="28.8069" x2="29.7031" y2="28.8069" stroke="#99A5B0" stroke-width="3"/>
</svg>
