<svg width="140" height="23" viewBox="0 0 140 23" fill="none" xmlns="http://www.w3.org/2000/svg">
<path d="M99.1688 4.36029H95.6954V18.6358H99.1688C103.728 18.6358 106.925 16.9815 106.925 11.4879C106.925 6.01459 103.728 4.36029 99.1688 4.36029ZM97.0175 5.5618H99.129C102.385 5.5618 105.523 6.2113 105.523 11.4879C105.523 16.7653 102.386 17.4352 99.129 17.4352H97.0175V5.5618ZM115.607 17.0214L115.667 18.6358H116.91L116.866 17.794C116.826 17.0453 116.801 16.2958 116.793 15.5461L116.791 15.2492C116.791 14.4021 116.811 13.4372 116.811 11.9805C116.811 8.82964 115.173 7.80622 112.706 7.80622C110.339 7.80622 108.641 9.18407 108.364 11.2717H109.648C109.746 9.89292 110.831 8.889 112.627 8.889L112.742 8.88989C114.236 8.91647 115.588 9.48002 115.588 11.8228V12.1967L115.136 12.2446C110.337 12.7638 108.108 13.6676 108.108 15.9971C108.108 17.7497 109.648 18.8919 111.621 18.8919C113.594 18.8919 114.917 18.144 115.608 17.0214H115.607ZM111.897 17.8091C110.496 17.8091 109.469 17.1002 109.469 15.9776C109.469 14.3233 111.325 13.7527 115.647 13.2804V13.7916C115.647 16.8043 113.871 17.8091 111.897 17.8091ZM124.192 18.8919C126.639 18.8919 128.632 16.8831 128.632 13.3787C128.632 9.85394 126.639 7.86559 124.192 7.86559C122.633 7.86559 121.35 8.59394 120.6 9.85394V8.04281H119.377V22.0817H120.6V16.8831C121.35 18.1635 122.633 18.8919 124.192 18.8919ZM123.935 17.7896C122.337 17.7896 120.521 16.5092 120.521 13.3787C120.521 10.2474 122.337 8.96786 123.935 8.96786C125.909 8.96786 127.31 10.5628 127.31 13.3787C127.31 16.1947 125.909 17.7896 123.935 17.7896H123.935ZM135.56 18.8919C138.007 18.8919 140 16.8831 140 13.3787C140 9.85394 138.006 7.86559 135.56 7.86559C134 7.86559 132.718 8.59394 131.968 9.85394V8.04281H130.745V22.0817H131.968V16.8831C132.718 18.1635 134 18.8919 135.56 18.8919ZM135.303 17.7896C133.704 17.7896 131.889 16.5092 131.889 13.3787C131.889 10.2474 133.705 8.96786 135.303 8.96786C137.277 8.96786 138.678 10.5628 138.678 13.3787C138.678 16.1947 137.277 17.7896 135.303 17.7896Z" fill="black"/>
<path fill-rule="evenodd" clip-rule="evenodd" d="M91.2559 4.78125L86.4995 9.56249L81.743 4.78125L86.4995 0L91.2559 4.78125Z" fill="#0055FF"/>
<path d="M75.4379 10.7774C72.5475 10.1438 73.9316 10.4601 72.6875 10.1784C71.5489 9.91432 70.9712 9.58027 70.9712 8.76951C70.9712 7.90737 71.7944 7.18522 73.5638 7.18522C75.2979 7.18522 76.261 7.95964 76.261 8.64724C76.261 8.82268 76.3603 8.91129 76.5588 8.91129H79.0814C79.2099 8.91129 79.2746 8.82888 79.2746 8.66407C79.2746 6.85028 77.7151 4.68472 73.6338 4.68472C69.3772 4.68472 68.0454 7.20294 68.0454 8.82268C68.0454 10.1784 68.5363 11.7813 71.7944 12.538L74.597 13.1724C76.0156 13.4896 76.6119 13.9823 76.6119 14.8099C76.6119 15.5675 75.8588 16.4828 73.8961 16.4828C72.0744 16.4828 70.9712 15.602 70.9189 14.5635C70.9189 14.3872 70.8126 14.2995 70.6035 14.2995H68.0277C67.9772 14.2995 67.8354 14.2995 67.8354 14.5635C68.0631 16.8877 69.7794 19.0719 73.8784 19.0719C78.5214 19.0719 79.4669 16.2187 79.4669 14.7213C79.4669 12.7143 78.3283 11.4118 75.4379 10.7782V10.7774ZM65.7159 12.6443C65.8754 12.6443 65.9631 12.5619 65.9782 12.3989V11.9922C65.9782 9.8266 65.365 7.96053 64.1564 6.65712C62.9478 5.35371 61.3192 4.68472 59.322 4.68472C57.3948 4.68472 55.783 5.40687 54.5399 6.81573C53.2958 8.22458 52.6827 9.93204 52.6827 11.869C52.6827 13.9291 53.3313 15.6552 54.6099 17.0109C55.8885 18.3666 57.5702 19.0541 59.602 19.0541C61.0729 19.0541 62.3347 18.7015 63.351 17.9793C64.3673 17.2749 65.4359 16.1133 65.8036 14.5281C65.8151 14.3518 65.7505 14.264 65.6105 14.264H63.0878C62.946 14.264 62.8282 14.3527 62.7378 14.5281C62.1069 15.7961 61.1438 16.395 59.5497 16.395C58.5166 16.395 57.588 16.0247 56.8171 15.3034C56.0817 14.6167 55.6608 13.7882 55.5553 12.6089L65.7159 12.6443ZM55.7308 10.1784C56.1685 8.54091 57.5348 7.32522 59.322 7.32522C61.6869 7.32522 62.6678 9.01673 62.9478 10.1784H55.7308ZM52.0438 4.68472H49.3448C49.2199 4.69536 49.1207 4.77953 49.0471 4.93814L45.2547 15.3823L41.5146 4.93814C41.4535 4.76979 41.3551 4.68472 41.2169 4.68472H38.4665C38.3 4.68472 38.2415 4.7689 38.2911 4.93814L43.6696 18.6767C43.7174 18.8574 43.822 18.9478 43.985 18.9478H46.4722C46.6007 18.9478 46.7052 18.8574 46.7876 18.6767L52.2175 4.93814C52.2671 4.77422 52.2086 4.69004 52.0429 4.68472H52.0438ZM33.4133 4.96649C33.415 6.02092 33.415 6.56142 33.4133 6.58623C33.4133 6.65712 33.3672 6.64914 33.361 6.6394C33.011 6.1813 32.5378 5.77636 31.977 5.44143C31.8547 5.37054 31.7147 5.30054 31.5747 5.23054C30.8215 4.86105 29.9629 4.68472 29.0343 4.68472C27.3003 4.68472 25.7762 5.38915 24.5153 6.76256C23.2536 8.13597 22.6227 9.86204 22.6227 11.8867C22.6227 13.9123 23.2536 15.6375 24.5153 17.0109C25.7762 18.3843 27.3003 19.0887 29.0343 19.0887C29.9629 19.0887 30.8038 18.9133 31.557 18.5429C31.697 18.472 31.8547 18.402 31.9947 18.3143C32.5378 17.9793 32.9933 17.6099 33.3442 17.1695C33.3619 17.1518 33.4204 17.1216 33.431 17.1695V18.5961C33.4195 18.7724 33.5072 18.8601 33.6942 18.8601H35.9891C36.1636 18.8601 36.2514 18.7715 36.2514 18.5961V4.94877C36.2514 4.77244 36.1636 4.68472 35.9891 4.68472H33.6764C33.501 4.68472 33.4142 4.77865 33.4142 4.96649H33.4133ZM32.2587 15.1971C31.4878 16.0247 31.0023 16.325 29.6749 16.4296C28.3467 16.5359 27.0734 16.0247 26.2848 15.1802C25.4962 14.3518 25.1117 13.2424 25.1117 11.8513C25.1117 10.4779 25.5148 9.3685 26.2848 8.52319C27.0734 7.69559 28.3343 7.27382 29.4384 7.27382C30.5415 7.27382 31.4701 7.67787 32.2587 8.50547C32.7664 9.05129 33.0996 9.70343 33.2919 10.4956C33.4851 11.2877 33.4673 12.3448 33.2919 13.1715C33.1173 14 32.7664 14.669 32.2587 15.1971ZM21.4841 4.68472H18.8046C18.6566 4.68472 18.5636 4.7689 18.5237 4.93814L15.7858 15.6197L12.673 4.93814C12.6287 4.76979 12.5357 4.68472 12.393 4.68472H9.59035C9.46098 4.68472 9.36794 4.7689 9.31035 4.93814L6.05138 15.6197L3.42417 4.93814C3.38873 4.76979 3.29569 4.68472 3.14418 4.68472H0.411531C0.267987 4.68472 0.209506 4.7689 0.236089 4.93814L4.52733 18.6767C4.56987 18.8574 4.66911 18.9478 4.82505 18.9478H7.52314C7.66491 18.9478 7.76415 18.8574 7.82086 18.6767L10.9514 8.66673L14.0402 18.6767C14.0827 18.8574 14.182 18.9478 14.3379 18.9478H17.0706C17.1999 18.9478 17.2992 18.8574 17.3692 18.6767L21.6604 4.93814C21.6976 4.76979 21.6392 4.68472 21.485 4.68472H21.4841Z" fill="black"/>
</svg>
