<svg width="26" height="26" viewBox="0 0 26 26" fill="none" xmlns="http://www.w3.org/2000/svg">
<circle cx="13.1614" cy="13.1613" r="7.40092" stroke="black" stroke-width="4"/>
<line x1="5.17471" y1="4.22632" x2="8.93508" y2="7.98669" stroke="black" stroke-width="4"/>
<line x1="5.17471" y1="4.22632" x2="8.93508" y2="7.98669" stroke="black" stroke-width="4"/>
<line x1="5.17471" y1="4.22632" x2="8.93508" y2="7.98669" stroke="black" stroke-width="4"/>
<line x1="18.3358" y1="17.3876" x2="22.0962" y2="21.148" stroke="black" stroke-width="4"/>
<line x1="18.3358" y1="17.3876" x2="22.0962" y2="21.148" stroke="black" stroke-width="4"/>
<line x1="18.3358" y1="17.3876" x2="22.0962" y2="21.148" stroke="black" stroke-width="4"/>
<line x1="22.0961" y1="5.17456" x2="18.3357" y2="8.93493" stroke="black" stroke-width="4"/>
<line x1="22.0961" y1="5.17456" x2="18.3357" y2="8.93493" stroke="black" stroke-width="4"/>
<line x1="22.0961" y1="5.17456" x2="18.3357" y2="8.93493" stroke="black" stroke-width="4"/>
<line x1="8.93497" y1="18.3358" x2="5.1746" y2="22.0962" stroke="black" stroke-width="4"/>
<line x1="8.93497" y1="18.3358" x2="5.1746" y2="22.0962" stroke="black" stroke-width="4"/>
<line x1="8.93497" y1="18.3358" x2="5.1746" y2="22.0962" stroke="black" stroke-width="4"/>
<line x1="13.2811" y1="8.74228e-08" x2="13.2811" y2="5.31797" stroke="black" stroke-width="4"/>
<line x1="13.2811" y1="8.74228e-08" x2="13.2811" y2="5.31797" stroke="black" stroke-width="4"/>
<line x1="13.2811" y1="8.74228e-08" x2="13.2811" y2="5.31797" stroke="black" stroke-width="4"/>
<line x1="13.281" y1="20.682" x2="13.281" y2="26" stroke="black" stroke-width="4"/>
<line x1="13.281" y1="20.682" x2="13.281" y2="26" stroke="black" stroke-width="4"/>
<line x1="13.281" y1="20.682" x2="13.281" y2="26" stroke="black" stroke-width="4"/>
<line x1="20.6819" y1="13.0415" x2="25.9999" y2="13.0415" stroke="black" stroke-width="4"/>
<line x1="20.6819" y1="13.0415" x2="25.9999" y2="13.0415" stroke="black" stroke-width="4"/>
<line x1="20.6819" y1="13.0415" x2="25.9999" y2="13.0415" stroke="black" stroke-width="4"/>
<line x1="3.49691e-07" y1="13.0415" x2="5.31797" y2="13.0415" stroke="black" stroke-width="4"/>
<line x1="3.49691e-07" y1="13.0415" x2="5.31797" y2="13.0415" stroke="black" stroke-width="4"/>
<line x1="3.49691e-07" y1="13.0415" x2="5.31797" y2="13.0415" stroke="black" stroke-width="4"/>
</svg>
