<svg width="38" height="38" viewBox="0 0 38 38" fill="none" xmlns="http://www.w3.org/2000/svg">
    <mask id="mask0"  maskUnits="userSpaceOnUse" x="0" y="0" width="38" height="38">
        <rect width="38" height="38" fill="white"/>
    </mask>
    <g mask="url(#mask0)">
        <path d="M13.7276 1C13.1971 1 12.6884 1.21071 12.3134 1.58579L4.58579 9.31336C4.21071 9.68843 4 10.1971 4 10.7276V34C4 35.1046 4.89543 36 6 36H31.697C32.8015 36 33.697 35.1046 33.697 34V3C33.697 1.89543 32.8015 1 31.697 1H13.7276ZM12.4848 3.41398V8.48485C12.4848 9.03713 12.0371 9.48485 11.4848 9.48485H6.41398L12.4848 3.41398ZM32.2828 33.5859C32.2828 34.1381 31.8351 34.5859 31.2828 34.5859H6.41414C5.86186 34.5859 5.41414 34.1381 5.41414 33.5859V11.899C5.41414 11.3467 5.86186 10.899 6.41414 10.899H11.899C13.0036 10.899 13.899 10.0036 13.899 8.89899V3.41414C13.899 2.86186 14.3467 2.41414 14.899 2.41414H31.2828C31.8351 2.41414 32.2828 2.86186 32.2828 3.41414V33.5859Z" fill="#EF7362" stroke="#EF7362" stroke-width="0.5" stroke-linecap="round"/>
        <path d="M13.0146 16.7928L13.1914 16.9697L13.3682 16.7928L14.868 15.2926C15.0465 15.114 15.3358 15.114 15.5143 15.2925L15.6911 15.1157L15.5143 15.2925C15.6928 15.471 15.6928 15.7603 15.5144 15.9387L14.0145 17.4392L13.8378 17.6159L14.0145 17.7927L15.5144 19.2931C15.6928 19.4716 15.6928 19.7609 15.5143 19.9394C15.3358 20.1179 15.0465 20.1178 14.868 19.9393L13.3682 18.439L13.1914 18.2622L13.0146 18.439L11.5149 19.9393C11.3364 20.1178 11.047 20.1179 10.8685 19.9394C10.6901 19.7609 10.69 19.4716 10.8685 19.2931L12.3684 17.7927L12.5451 17.6159L12.3684 17.4392L10.8685 15.9387C10.69 15.7603 10.6901 15.471 10.8685 15.2925C11.047 15.114 11.3364 15.114 11.5149 15.2926L13.0146 16.7928Z" fill="#EF7362" stroke="#EF7362" stroke-width="0.5"/>
        <path d="M23.9747 18.439L23.7979 18.2622L23.6211 18.439L22.1213 19.9393C21.9428 20.1178 21.6534 20.1179 21.475 19.9394C21.2965 19.7609 21.2965 19.4716 21.4749 19.2931L22.9748 17.7927L23.1515 17.6159L22.9748 17.4392L21.4749 15.9387C21.2965 15.7603 21.2965 15.471 21.475 15.2925C21.6534 15.114 21.9428 15.114 22.1213 15.2926L23.6211 16.7928L23.7979 16.9697L23.9747 16.7928L25.4744 15.2926C25.6529 15.114 25.9423 15.114 26.1208 15.2925L26.2976 15.1157L26.1208 15.2925C26.2992 15.471 26.2993 15.7603 26.1208 15.9387L24.6209 17.4392L24.4442 17.6159L24.6209 17.7927L26.1208 19.2931C26.2993 19.4716 26.2992 19.7609 26.1208 19.9394C25.9423 20.1179 25.6529 20.1178 25.4744 19.9393L23.9747 18.439Z" fill="#EF7362" stroke="#EF7362" stroke-width="0.5"/>
        <path d="M14.1727 28.2419L14.1725 28.2421L14.0154 28.3992C13.8369 28.5776 13.5475 28.5776 13.3691 28.3992C13.1906 28.2207 13.1906 27.9314 13.3691 27.7529L13.526 27.596C13.526 27.596 13.526 27.596 13.526 27.5959C16.4677 24.661 21.2301 24.6611 24.1718 27.596L24.3287 27.7529C24.5071 27.9314 24.5071 28.2207 24.3287 28.3992C24.1502 28.5776 23.8608 28.5776 23.6824 28.3992L23.5253 28.2421L23.525 28.2419C20.9406 25.6643 16.7571 25.6643 14.1727 28.2419Z" fill="#EF7362" stroke="#EF7362" stroke-width="0.5"/>
    </g>
</svg>
