<svg width="1440" height="900" viewBox="0 0 1440 900" fill="none" xmlns="http://www.w3.org/2000/svg">
<g opacity="0.2">
<path d="M1908.49 -11.4128H-254.918V1561.2H1908.49V-11.4128Z" fill="url(#paint0_linear)"/>
<path d="M1001.55 305.894L1001.28 305.731L879.559 235.509V94.6838L879.832 94.52L1001.55 24.2985L1001.82 24.4623L1123.54 94.6838V235.454L1123.27 235.618L1001.55 305.894ZM880.597 234.854L1001.5 304.638L1122.4 234.854V95.339L1001.5 25.5544L880.597 95.339V234.854Z" fill="url(#paint1_linear)"/>
<path d="M1244.44 305.894L1244.17 305.731L1122.45 235.509V94.6838L1122.72 94.52L1244.44 24.2985L1244.72 24.4623L1366.43 94.6838V235.454L1366.16 235.618L1244.44 305.894ZM1123.49 234.854L1244.44 304.638L1365.34 234.854V95.339L1244.44 25.5544L1123.54 95.339V234.854H1123.49Z" fill="url(#paint2_linear)"/>
<path d="M1487.33 305.894L1487.06 305.731L1365.34 235.509V94.6838L1365.61 94.52L1487.33 24.2985L1487.61 24.4623L1609.33 94.6838V235.454L1609.05 235.618L1487.33 305.894ZM1366.43 234.854L1487.39 304.638L1608.29 234.854V95.339L1487.39 25.5544L1366.43 95.339V234.854Z" fill="url(#paint3_linear)"/>
<path d="M-91.5697 516.122L-91.8429 515.958L-213.562 445.737V304.966L-213.289 304.802L-91.5697 234.581L-91.2966 234.744L30.4223 304.966V445.737L30.1491 445.9L-91.5697 516.122ZM-212.469 445.136L-91.5697 514.921L29.3297 445.136V305.567L-91.5697 235.782L-212.469 305.567V445.136Z" fill="url(#paint4_linear)"/>
<path d="M1123 516.122L1122.72 515.958L1001 445.737V304.966L1001.28 304.802L1123 234.581L1123.27 234.744L1244.99 304.966V445.737L1244.72 445.9L1123 516.122ZM1002.04 445.136L1122.94 514.921L1243.84 445.136V305.567L1122.94 235.782L1002.04 305.567V445.136Z" fill="url(#paint5_linear)"/>
<path d="M1365.89 516.122L1365.61 515.958L1243.9 445.737V304.966L1244.17 304.802L1365.89 234.581L1366.16 234.744L1487.88 304.966V445.737L1487.61 445.9L1365.89 516.122ZM1244.99 445.136L1365.89 514.921L1486.79 445.136V305.567L1365.89 235.782L1244.99 305.567V445.136Z" fill="url(#paint6_linear)"/>
<path d="M1487.33 726.404L1487.06 726.24L1365.34 656.019V515.248L1365.61 515.084L1487.33 444.863L1487.61 445.027L1609.33 515.248V656.019L1609.05 656.183L1487.33 726.404ZM1366.43 655.418L1487.39 725.203L1608.29 655.418V515.849L1487.39 446.064L1366.43 515.849V655.418Z" fill="url(#paint7_linear)"/>
<path d="M29.9305 1146.91L29.6573 1146.75L-92.0615 1076.53V935.758L-91.7884 935.594L29.9305 865.373L30.2036 865.537L151.923 935.758V1076.53L151.649 1076.69L29.9305 1146.91ZM-91.0235 1075.93L29.8759 1145.71L150.775 1075.93V936.359L29.8759 866.574L-91.0235 936.359V1075.93Z" fill="url(#paint8_linear)"/>
<path d="M1450.18 -201V-81.5798L1294.65 8.19017L1139.11 -81.5798V-201H1133.6V-78.4127L1294.65 14.5243L1455.65 -78.4127V-201H1450.18Z" fill="url(#paint9_linear)"/>
<path d="M1452.92 288.53L1291.86 195.593V9.77367L1452.92 -83.1633L1613.97 9.77367V195.648L1452.92 288.53ZM1297.38 192.481L1452.92 282.251L1608.45 192.481V12.9407L1452.92 -76.8292L1297.38 12.9407V192.481Z" fill="url(#paint10_linear)"/>
<path d="M-129.975 836.596L-290.974 743.659V557.785L-129.921 464.848L31.1328 557.785V743.659L-129.975 836.596ZM-285.511 740.492L-129.975 830.262L25.5604 740.492V560.952L-129.975 471.182L-285.511 560.952V740.492Z" fill="url(#paint11_linear)"/>
<path d="M186.614 836.596L25.5602 743.659V557.785L186.614 464.848L347.667 557.785V743.659L186.614 836.596ZM31.078 740.492L186.614 830.262L342.149 740.492V560.952L186.614 471.182L31.078 561.007V740.492Z" fill="url(#paint12_linear)"/>
<path d="M28.3465 1110.66L-132.707 1017.72V831.846L28.3465 738.909L189.4 831.846V1017.72L28.3465 1110.66ZM-127.189 1014.55L28.3465 1104.27L183.882 1014.5V834.958L28.3465 745.243L-127.189 835.013V1014.55Z" fill="url(#paint13_linear)"/>
<path d="M344.881 1110.66L183.827 1017.72V831.846L344.881 738.909L505.934 831.846V1017.72L344.881 1110.66ZM189.345 1014.55L344.881 1104.32L500.417 1014.55V835.013L344.881 745.243L189.345 835.013V1014.55Z" fill="url(#paint14_linear)"/>
<path d="M29.9305 313.976C34.738 313.976 38.6715 310.044 38.6715 305.239C38.6715 300.434 34.738 296.502 29.9305 296.502C25.1229 296.502 21.1895 300.434 21.1895 305.239C21.1895 310.099 25.0683 313.976 29.9305 313.976Z" fill="url(#paint15_linear)"/>
<path d="M758.605 26.3736C759.424 26.3736 760.08 25.7183 760.08 24.8992C760.08 24.0801 759.424 23.4249 758.605 23.4249C757.785 23.4249 757.13 24.0801 757.13 24.8992C757.13 25.7183 757.785 26.3736 758.605 26.3736Z" fill="url(#paint16_linear)"/>
<path d="M880.105 78.2478C870.872 78.2478 863.333 85.7286 863.333 95.0114C863.333 104.24 870.818 111.775 880.105 111.775C889.337 111.775 896.876 104.294 896.876 95.0114C896.822 85.7832 889.337 78.2478 880.105 78.2478Z" fill="url(#paint17_linear)"/>
<path d="M880.105 245.666C885.896 245.666 890.594 240.969 890.594 235.181C890.594 229.393 885.896 224.697 880.105 224.697C874.314 224.697 869.616 229.393 869.616 235.181C869.616 240.969 874.314 245.666 880.105 245.666Z" fill="url(#paint18_linear)"/>
<path d="M1001.55 314.686C1006.74 314.686 1011 310.481 1011 305.239C1011 300.052 1006.79 295.793 1001.55 295.793C996.36 295.793 992.099 299.997 992.099 305.239C992.099 310.481 996.306 314.686 1001.55 314.686Z" fill="url(#paint19_linear)"/>
<path d="M1001.55 29.759C1004.24 29.759 1006.41 27.5831 1006.41 24.8991C1006.41 22.2151 1004.24 20.0393 1001.55 20.0393C998.866 20.0393 996.689 22.2151 996.689 24.8991C996.689 27.5831 998.866 29.759 1001.55 29.759Z" fill="url(#paint20_linear)"/>
<path d="M1123 104.622C1128.3 104.622 1132.61 100.308 1132.61 95.0115C1132.61 89.7148 1128.3 85.4011 1123 85.4011C1117.7 85.4011 1113.38 89.7148 1113.38 95.0115C1113.38 100.308 1117.7 104.622 1123 104.622Z" fill="url(#paint21_linear)"/>
<path d="M1123 218.309C1113.65 218.309 1106.12 225.844 1106.12 235.181C1106.12 244.519 1113.65 252.054 1123 252.054C1132.34 252.054 1139.88 244.519 1139.88 235.181C1139.88 225.844 1132.28 218.309 1123 218.309Z" fill="url(#paint22_linear)"/>
<path d="M1244.44 32.0524C1248.38 32.0524 1251.54 28.8853 1251.54 24.9538C1251.54 21.0222 1248.38 17.8552 1244.44 17.8552C1240.51 17.8552 1237.34 21.0222 1237.34 24.9538C1237.34 28.8307 1240.51 32.0524 1244.44 32.0524Z" fill="url(#paint23_linear)"/>
<path d="M1365.89 108.117C1373.1 108.117 1379 102.274 1379 95.0115C1379 87.8037 1373.15 81.9064 1365.89 81.9064C1358.68 81.9064 1352.78 87.7491 1352.78 95.0115C1352.78 102.219 1358.68 108.117 1365.89 108.117Z" fill="url(#paint24_linear)"/>
<path d="M1365.89 250.798C1374.52 250.798 1381.51 243.806 1381.51 235.181C1381.51 226.556 1374.52 219.564 1365.89 219.564C1357.26 219.564 1350.26 226.556 1350.26 235.181C1350.26 243.806 1357.26 250.798 1365.89 250.798Z" fill="url(#paint25_linear)"/>
<path d="M29.9309 459.169C37.5247 459.169 43.6434 452.999 43.6434 445.464C43.6434 437.928 37.47 431.758 29.9309 431.758C22.3918 431.758 16.2184 437.928 16.2184 445.464C16.2184 452.999 22.3371 459.169 29.9309 459.169Z" fill="url(#paint26_linear)"/>
<path d="M1001.55 458.077C1008.54 458.077 1014.23 452.398 1014.23 445.409C1014.23 438.42 1008.54 432.741 1001.55 432.741C994.558 432.741 988.877 438.42 988.877 445.409C988.877 452.453 994.558 458.077 1001.55 458.077Z" fill="url(#paint27_linear)"/>
<path d="M1244.44 298.796C1240.89 298.796 1237.94 301.69 1237.94 305.294C1237.94 308.843 1240.84 311.792 1244.44 311.792C1248.05 311.792 1250.94 308.897 1250.94 305.294C1250.94 301.69 1247.99 298.796 1244.44 298.796Z" fill="url(#paint28_linear)"/>
<path d="M1244.44 457.477C1251.05 457.477 1256.46 452.125 1256.46 445.464C1256.46 438.856 1251.11 433.451 1244.44 433.451C1237.83 433.451 1232.42 438.802 1232.42 445.464C1232.42 452.071 1237.83 457.477 1244.44 457.477Z" fill="url(#paint29_linear)"/>
<path d="M1365.89 523.111C1370.08 523.111 1373.48 519.713 1373.48 515.521C1373.48 511.329 1370.08 507.931 1365.89 507.931C1361.69 507.931 1358.29 511.329 1358.29 515.521C1358.29 519.713 1361.69 523.111 1365.89 523.111Z" fill="url(#paint30_linear)"/>
<path d="M1133.1 515.521C1133.1 509.952 1128.57 505.419 1123 505.419C1117.42 505.419 1112.89 509.952 1112.89 515.521C1112.89 521.091 1117.42 525.623 1123 525.623C1128.57 525.623 1133.1 521.091 1133.1 515.521Z" fill="url(#paint31_linear)"/>
<path d="M1365.89 642.75C1358.73 642.75 1352.89 648.538 1352.89 655.746C1352.89 662.899 1358.68 668.742 1365.89 668.742C1373.04 668.742 1378.89 662.954 1378.89 655.746C1378.89 648.538 1373.04 642.75 1365.89 642.75Z" fill="url(#paint32_linear)"/>
<path d="M29.9306 881.426C38.5078 881.426 45.3914 874.492 45.3914 865.973C45.3914 857.455 38.4531 850.52 29.9306 850.52C21.3534 850.52 14.4698 857.455 14.4698 865.973C14.4698 874.492 21.3534 881.426 29.9306 881.426Z" fill="url(#paint33_linear)"/>
<g opacity="0.2">
<g opacity="0.2">
<g opacity="0.2">
<g opacity="0.2">
<path opacity="0.2" d="M1137.53 -201V-52.694L989.969 32.4892L842.355 -52.694V-201H841.044V-51.9295L989.641 33.7997L989.969 33.9635L1138.51 -51.7657L1138.84 -51.9295V-201H1137.53Z" fill="url(#paint34_linear)"/>
</g>
<g opacity="0.2">
<path opacity="0.2" d="M1434.01 -201V-52.694L1286.45 32.4892L1138.84 -52.694V-201H1137.53V-51.9295L1286.13 33.7997L1286.45 33.9635L1435 -51.7657L1435.32 -51.9295V-201H1434.01Z" fill="url(#paint35_linear)"/>
</g>
<g opacity="0.2">
<path opacity="0.2" d="M1730.5 -201V-52.694L1582.88 32.4892L1435.32 -52.694V-201H1434.01V-51.9295L1582.61 33.7997L1582.88 33.9635L1731.48 -51.7657L1731.81 -51.9295V-201H1730.5Z" fill="url(#paint36_linear)"/>
</g>
<g opacity="0.2">
<path opacity="0.2" d="M1434.67 290.605L1434.34 290.441L1285.8 204.712V32.8714L1286.13 32.7076L1434.67 -53.0216L1435 -52.8578L1583.54 32.8714V204.712L1583.21 204.876L1434.67 290.605ZM1287.05 203.948L1434.67 289.131L1582.28 203.948V33.5813L1434.67 -51.6019L1287.05 33.5813V203.948Z" fill="url(#paint37_linear)"/>
</g>
<g opacity="0.2">
<path opacity="0.2" d="M1582.88 547.247L1582.56 547.083L1434.01 461.354V289.458L1434.34 289.295L1582.88 203.565L1583.21 203.729L1731.75 289.458V461.299L1731.43 461.463L1582.88 547.247ZM1435.32 460.589L1582.94 545.772L1730.55 460.589V290.223L1582.94 205.04L1435.32 290.223V460.589Z" fill="url(#paint38_linear)"/>
</g>
<g opacity="0.2">
<path opacity="0.2" d="M100.514 1060.48L100.187 1060.31L-48.3562 974.582V802.742L-48.0284 802.578L100.514 716.849L100.842 717.012L249.385 802.742V974.582L249.057 974.746L100.514 1060.48ZM-47.0997 973.818L100.514 1059L248.129 973.818V803.451L100.514 718.268L-47.0997 803.451V973.818Z" fill="url(#paint39_linear)"/>
</g>
<g opacity="0.2">
<path opacity="0.2" d="M396.999 1060.48L396.671 1060.31L248.129 974.582V802.742L248.456 802.578L396.999 716.849L397.327 717.012L545.87 802.742V974.582L545.542 974.746L396.999 1060.48ZM249.385 973.818L396.999 1059L544.613 973.818V803.451L396.999 718.268L249.385 803.451V973.818Z" fill="url(#paint40_linear)"/>
</g>
</g>
<g opacity="0.2">
<g opacity="0.2">
<path opacity="0.2" d="M1775.68 -201V-26.6476L1585.83 82.8892L1395.99 -26.6476V-201H1389.27V-22.7706L1585.83 90.6431L1782.4 -22.7706V-201H1775.68Z" fill="url(#paint41_linear)"/>
</g>
<g opacity="0.2">
<path opacity="0.2" d="M-152.92 425.096L-349.484 311.682V84.855L-152.92 -28.5587L43.6437 84.855V311.682L-152.92 425.096ZM-342.765 307.806L-152.92 417.342L36.924 307.806V88.7319L-152.92 -20.8595L-342.765 88.7319V307.806Z" fill="url(#paint42_linear)"/>
</g>
<g opacity="0.2">
<path opacity="0.2" d="M40.2559 759.549L-156.308 646.136V419.308L40.2559 305.894L236.82 419.308V646.136L40.2559 759.549ZM-149.588 642.259L40.2559 751.795L230.1 642.259V423.13L40.2559 313.648L-149.588 423.185V642.259Z" fill="url(#paint43_linear)"/>
</g>
<g opacity="0.2">
<path opacity="0.2" d="M-152.92 1094.06L-349.484 980.589V753.761L-152.92 640.347L43.6437 753.761V980.589L-152.92 1094.06ZM-342.765 976.766L-152.92 1086.3L36.924 976.766V757.638L-152.92 648.101L-342.765 757.638V976.766Z" fill="url(#paint44_linear)"/>
</g>
</g>
<g opacity="0.2">
<path opacity="0.2" d="M1286.45 42.4272C1291.55 42.4272 1295.69 38.2956 1295.69 33.199C1295.69 28.1025 1291.55 23.9709 1286.45 23.9709C1281.36 23.9709 1277.22 28.1025 1277.22 33.199C1277.22 38.2956 1281.36 42.4272 1286.45 42.4272Z" fill="url(#paint45_linear)"/>
<path opacity="0.2" d="M1002.26 33.199C1002.26 26.428 996.743 20.913 989.969 20.913C983.195 20.913 977.677 26.428 977.677 33.199C977.677 39.97 983.195 45.485 989.969 45.485C996.743 45.485 1002.26 40.0246 1002.26 33.199Z" fill="url(#paint46_linear)"/>
<path opacity="0.2" d="M1286.45 220.165C1295.2 220.165 1302.3 213.075 1302.3 204.33C1302.3 195.584 1295.2 188.494 1286.45 188.494C1277.7 188.494 1270.61 195.584 1270.61 204.33C1270.61 213.075 1277.7 220.165 1286.45 220.165Z" fill="url(#paint47_linear)"/>
<path opacity="0.2" d="M1418.22 289.841C1418.22 298.905 1425.6 306.277 1434.67 306.277C1443.74 306.277 1451.11 298.905 1451.11 289.841C1451.11 280.776 1443.74 273.405 1434.67 273.405C1425.6 273.405 1418.22 280.776 1418.22 289.841Z" fill="url(#paint48_linear)"/>
<path opacity="0.2" d="M1434.67 447.976C1427.51 447.976 1421.72 453.764 1421.72 460.917C1421.72 468.07 1427.51 473.858 1434.67 473.858C1441.83 473.858 1447.62 468.07 1447.62 460.917C1447.62 453.818 1441.83 447.976 1434.67 447.976Z" fill="url(#paint49_linear)"/>
<path opacity="0.2" d="M108.163 717.558C108.163 713.354 104.721 709.914 100.515 709.914C96.3081 709.914 92.8663 713.354 92.8663 717.558C92.8663 721.763 96.3081 725.203 100.515 725.203C104.721 725.203 108.163 721.763 108.163 717.558Z" fill="url(#paint50_linear)"/>
<path opacity="0.2" d="M248.729 817.867C256.876 817.867 263.48 811.266 263.48 803.124C263.48 794.981 256.876 788.38 248.729 788.38C240.583 788.38 233.979 794.981 233.979 803.124C233.979 811.266 240.583 817.867 248.729 817.867Z" fill="url(#paint51_linear)"/>
<path opacity="0.2" d="M411.259 717.558C411.259 709.695 404.867 703.307 397 703.307C389.133 703.307 382.741 709.695 382.741 717.558C382.741 725.421 389.133 731.81 397 731.81C404.867 731.81 411.259 725.421 411.259 717.558Z" fill="url(#paint52_linear)"/>
<path opacity="0.2" d="M545.215 819.778C554.417 819.778 561.877 812.322 561.877 803.124C561.877 793.926 554.417 786.469 545.215 786.469C536.012 786.469 528.552 793.926 528.552 803.124C528.552 812.322 536.012 819.778 545.215 819.778Z" fill="url(#paint53_linear)"/>
</g>
</g>
</g>
</g>
<defs>
<linearGradient id="paint0_linear" x1="365.735" y1="-92.6257" x2="1435.69" y2="1922.72" gradientUnits="userSpaceOnUse">
<stop stop-color="white"/>
<stop offset="1" stop-color="#F0F7FC"/>
</linearGradient>
<linearGradient id="paint1_linear" x1="2143.63" y1="1927.63" x2="904.112" y2="12.8657" gradientUnits="userSpaceOnUse">
<stop stop-color="#52BBE8"/>
<stop offset="0.196" stop-color="#69C3EB"/>
<stop offset="0.6037" stop-color="#A3D8F1"/>
<stop offset="1" stop-color="#E1EFF8"/>
</linearGradient>
<linearGradient id="paint2_linear" x1="2314.76" y1="1816.85" x2="1075.24" y2="-97.9111" gradientUnits="userSpaceOnUse">
<stop stop-color="#52BBE8"/>
<stop offset="0.196" stop-color="#69C3EB"/>
<stop offset="0.6037" stop-color="#A3D8F1"/>
<stop offset="1" stop-color="#E1EFF8"/>
</linearGradient>
<linearGradient id="paint3_linear" x1="2485.88" y1="1706.07" x2="1246.36" y2="-208.69" gradientUnits="userSpaceOnUse">
<stop stop-color="#52BBE8"/>
<stop offset="0.196" stop-color="#69C3EB"/>
<stop offset="0.6037" stop-color="#A3D8F1"/>
<stop offset="1" stop-color="#E1EFF8"/>
</linearGradient>
<linearGradient id="paint4_linear" x1="1277.59" y1="2488.25" x2="38.0676" y2="573.499" gradientUnits="userSpaceOnUse">
<stop stop-color="#52BBE8"/>
<stop offset="0.196" stop-color="#69C3EB"/>
<stop offset="0.6037" stop-color="#A3D8F1"/>
<stop offset="1" stop-color="#E1EFF8"/>
</linearGradient>
<linearGradient id="paint5_linear" x1="2133.21" y1="1934.37" x2="893.692" y2="19.6126" gradientUnits="userSpaceOnUse">
<stop stop-color="#52BBE8"/>
<stop offset="0.196" stop-color="#69C3EB"/>
<stop offset="0.6037" stop-color="#A3D8F1"/>
<stop offset="1" stop-color="#E1EFF8"/>
</linearGradient>
<linearGradient id="paint6_linear" x1="2304.33" y1="1823.59" x2="1064.82" y2="-91.1664" gradientUnits="userSpaceOnUse">
<stop stop-color="#52BBE8"/>
<stop offset="0.196" stop-color="#69C3EB"/>
<stop offset="0.6037" stop-color="#A3D8F1"/>
<stop offset="1" stop-color="#E1EFF8"/>
</linearGradient>
<linearGradient id="paint7_linear" x1="2293.91" y1="1830.34" x2="1054.39" y2="-84.4184" gradientUnits="userSpaceOnUse">
<stop stop-color="#52BBE8"/>
<stop offset="0.196" stop-color="#69C3EB"/>
<stop offset="0.6037" stop-color="#A3D8F1"/>
<stop offset="1" stop-color="#E1EFF8"/>
</linearGradient>
<linearGradient id="paint8_linear" x1="1075.2" y1="2619.27" x2="-164.321" y2="704.515" gradientUnits="userSpaceOnUse">
<stop stop-color="#52BBE8"/>
<stop offset="0.196" stop-color="#69C3EB"/>
<stop offset="0.6037" stop-color="#A3D8F1"/>
<stop offset="1" stop-color="#E1EFF8"/>
</linearGradient>
<linearGradient id="paint9_linear" x1="2489.25" y1="1703.89" x2="1249.73" y2="-210.871" gradientUnits="userSpaceOnUse">
<stop stop-color="#52BBE8"/>
<stop offset="0.196" stop-color="#69C3EB"/>
<stop offset="0.6037" stop-color="#A3D8F1"/>
<stop offset="1" stop-color="#E1EFF8"/>
</linearGradient>
<linearGradient id="paint10_linear" x1="2490.11" y1="1703.33" x2="1250.59" y2="-211.425" gradientUnits="userSpaceOnUse">
<stop stop-color="#52BBE8"/>
<stop offset="0.196" stop-color="#69C3EB"/>
<stop offset="0.6037" stop-color="#A3D8F1"/>
<stop offset="1" stop-color="#E1EFF8"/>
</linearGradient>
<linearGradient id="paint11_linear" x1="1124.81" y1="2587.16" x2="-114.708" y2="672.401" gradientUnits="userSpaceOnUse">
<stop stop-color="#52BBE8"/>
<stop offset="0.196" stop-color="#69C3EB"/>
<stop offset="0.6037" stop-color="#A3D8F1"/>
<stop offset="1" stop-color="#E1EFF8"/>
</linearGradient>
<linearGradient id="paint12_linear" x1="1347.83" y1="2442.79" x2="108.313" y2="528.026" gradientUnits="userSpaceOnUse">
<stop stop-color="#52BBE8"/>
<stop offset="0.196" stop-color="#69C3EB"/>
<stop offset="0.6037" stop-color="#A3D8F1"/>
<stop offset="1" stop-color="#E1EFF8"/>
</linearGradient>
<linearGradient id="paint13_linear" x1="1111.23" y1="2595.95" x2="-128.291" y2="681.193" gradientUnits="userSpaceOnUse">
<stop stop-color="#52BBE8"/>
<stop offset="0.196" stop-color="#69C3EB"/>
<stop offset="0.6037" stop-color="#A3D8F1"/>
<stop offset="1" stop-color="#E1EFF8"/>
</linearGradient>
<linearGradient id="paint14_linear" x1="1334.25" y1="2451.57" x2="94.7306" y2="536.818" gradientUnits="userSpaceOnUse">
<stop stop-color="#52BBE8"/>
<stop offset="0.196" stop-color="#69C3EB"/>
<stop offset="0.6037" stop-color="#A3D8F1"/>
<stop offset="1" stop-color="#E1EFF8"/>
</linearGradient>
<linearGradient id="paint15_linear" x1="1395.12" y1="2412.13" x2="155.617" y2="497.4" gradientUnits="userSpaceOnUse">
<stop stop-color="#52BBE8"/>
<stop offset="0.196" stop-color="#69C3EB"/>
<stop offset="0.6037" stop-color="#A3D8F1"/>
<stop offset="1" stop-color="#E1EFF8"/>
</linearGradient>
<linearGradient id="paint16_linear" x1="2036.49" y1="1997.01" x2="796.938" y2="82.2461" gradientUnits="userSpaceOnUse">
<stop stop-color="#52BBE8"/>
<stop offset="0.196" stop-color="#69C3EB"/>
<stop offset="0.6037" stop-color="#A3D8F1"/>
<stop offset="1" stop-color="#E1EFF8"/>
</linearGradient>
<linearGradient id="paint17_linear" x1="2090.05" y1="1962.29" x2="850.53" y2="47.5541" gradientUnits="userSpaceOnUse">
<stop stop-color="#52BBE8"/>
<stop offset="0.196" stop-color="#69C3EB"/>
<stop offset="0.6037" stop-color="#A3D8F1"/>
<stop offset="1" stop-color="#E1EFF8"/>
</linearGradient>
<linearGradient id="paint18_linear" x1="2026.05" y1="2003.71" x2="786.535" y2="88.9808" gradientUnits="userSpaceOnUse">
<stop stop-color="#52BBE8"/>
<stop offset="0.196" stop-color="#69C3EB"/>
<stop offset="0.6037" stop-color="#A3D8F1"/>
<stop offset="1" stop-color="#E1EFF8"/>
</linearGradient>
<linearGradient id="paint19_linear" x1="2079.64" y1="1969.04" x2="840.125" y2="54.2872" gradientUnits="userSpaceOnUse">
<stop stop-color="#52BBE8"/>
<stop offset="0.196" stop-color="#69C3EB"/>
<stop offset="0.6037" stop-color="#A3D8F1"/>
<stop offset="1" stop-color="#E1EFF8"/>
</linearGradient>
<linearGradient id="paint20_linear" x1="2207.63" y1="1886.2" x2="968.115" y2="-28.5664" gradientUnits="userSpaceOnUse">
<stop stop-color="#52BBE8"/>
<stop offset="0.196" stop-color="#69C3EB"/>
<stop offset="0.6037" stop-color="#A3D8F1"/>
<stop offset="1" stop-color="#E1EFF8"/>
</linearGradient>
<linearGradient id="paint21_linear" x1="2261.21" y1="1851.55" x2="1021.67" y2="-63.2402" gradientUnits="userSpaceOnUse">
<stop stop-color="#52BBE8"/>
<stop offset="0.196" stop-color="#69C3EB"/>
<stop offset="0.6037" stop-color="#A3D8F1"/>
<stop offset="1" stop-color="#E1EFF8"/>
</linearGradient>
<linearGradient id="paint22_linear" x1="2197.19" y1="1892.95" x2="957.667" y2="-21.8017" gradientUnits="userSpaceOnUse">
<stop stop-color="#52BBE8"/>
<stop offset="0.196" stop-color="#69C3EB"/>
<stop offset="0.6037" stop-color="#A3D8F1"/>
<stop offset="1" stop-color="#E1EFF8"/>
</linearGradient>
<linearGradient id="paint23_linear" x1="2378.74" y1="1775.4" x2="1139.25" y2="-139.345" gradientUnits="userSpaceOnUse">
<stop stop-color="#52BBE8"/>
<stop offset="0.196" stop-color="#69C3EB"/>
<stop offset="0.6037" stop-color="#A3D8F1"/>
<stop offset="1" stop-color="#E1EFF8"/>
</linearGradient>
<linearGradient id="paint24_linear" x1="2432.32" y1="1740.74" x2="1192.81" y2="-174.022" gradientUnits="userSpaceOnUse">
<stop stop-color="#52BBE8"/>
<stop offset="0.196" stop-color="#69C3EB"/>
<stop offset="0.6037" stop-color="#A3D8F1"/>
<stop offset="1" stop-color="#E1EFF8"/>
</linearGradient>
<linearGradient id="paint25_linear" x1="2368.32" y1="1782.17" x2="1128.8" y2="-132.584" gradientUnits="userSpaceOnUse">
<stop stop-color="#52BBE8"/>
<stop offset="0.196" stop-color="#69C3EB"/>
<stop offset="0.6037" stop-color="#A3D8F1"/>
<stop offset="1" stop-color="#E1EFF8"/>
</linearGradient>
<linearGradient id="paint26_linear" x1="1331.17" y1="2453.61" x2="91.631" y2="538.828" gradientUnits="userSpaceOnUse">
<stop stop-color="#52BBE8"/>
<stop offset="0.196" stop-color="#69C3EB"/>
<stop offset="0.6037" stop-color="#A3D8F1"/>
<stop offset="1" stop-color="#E1EFF8"/>
</linearGradient>
<linearGradient id="paint27_linear" x1="2015.65" y1="2010.47" x2="776.132" y2="95.7129" gradientUnits="userSpaceOnUse">
<stop stop-color="#52BBE8"/>
<stop offset="0.196" stop-color="#69C3EB"/>
<stop offset="0.6037" stop-color="#A3D8F1"/>
<stop offset="1" stop-color="#E1EFF8"/>
</linearGradient>
<linearGradient id="paint28_linear" x1="2250.77" y1="1858.25" x2="1011.27" y2="-56.4971" gradientUnits="userSpaceOnUse">
<stop stop-color="#52BBE8"/>
<stop offset="0.196" stop-color="#69C3EB"/>
<stop offset="0.6037" stop-color="#A3D8F1"/>
<stop offset="1" stop-color="#E1EFF8"/>
</linearGradient>
<linearGradient id="paint29_linear" x1="2186.77" y1="1899.69" x2="947.248" y2="-15.0547" gradientUnits="userSpaceOnUse">
<stop stop-color="#52BBE8"/>
<stop offset="0.196" stop-color="#69C3EB"/>
<stop offset="0.6037" stop-color="#A3D8F1"/>
<stop offset="1" stop-color="#E1EFF8"/>
</linearGradient>
<linearGradient id="paint30_linear" x1="2240.34" y1="1865.03" x2="1000.8" y2="-49.7317" gradientUnits="userSpaceOnUse">
<stop stop-color="#52BBE8"/>
<stop offset="0.196" stop-color="#69C3EB"/>
<stop offset="0.6037" stop-color="#A3D8F1"/>
<stop offset="1" stop-color="#E1EFF8"/>
</linearGradient>
<linearGradient id="paint31_linear" x1="2069.22" y1="1975.81" x2="829.686" y2="61.0428" gradientUnits="userSpaceOnUse">
<stop stop-color="#52BBE8"/>
<stop offset="0.196" stop-color="#69C3EB"/>
<stop offset="0.6037" stop-color="#A3D8F1"/>
<stop offset="1" stop-color="#E1EFF8"/>
</linearGradient>
<linearGradient id="paint32_linear" x1="2176.35" y1="1906.44" x2="936.827" y2="-8.31283" gradientUnits="userSpaceOnUse">
<stop stop-color="#52BBE8"/>
<stop offset="0.196" stop-color="#69C3EB"/>
<stop offset="0.6037" stop-color="#A3D8F1"/>
<stop offset="1" stop-color="#E1EFF8"/>
</linearGradient>
<linearGradient id="paint33_linear" x1="1139.19" y1="2577.84" x2="-100.321" y2="663.088" gradientUnits="userSpaceOnUse">
<stop stop-color="#52BBE8"/>
<stop offset="0.196" stop-color="#69C3EB"/>
<stop offset="0.6037" stop-color="#A3D8F1"/>
<stop offset="1" stop-color="#E1EFF8"/>
</linearGradient>
<linearGradient id="paint34_linear" x1="2217.77" y1="1768.34" x2="704.884" y2="-568.695" gradientUnits="userSpaceOnUse">
<stop stop-color="#52BBE8"/>
<stop offset="0.196" stop-color="#69C3EB"/>
<stop offset="0.6037" stop-color="#A3D8F1"/>
<stop offset="1" stop-color="#E1EFF8"/>
</linearGradient>
<linearGradient id="paint35_linear" x1="2426.63" y1="1633.13" x2="913.748" y2="-703.906" gradientUnits="userSpaceOnUse">
<stop stop-color="#52BBE8"/>
<stop offset="0.196" stop-color="#69C3EB"/>
<stop offset="0.6037" stop-color="#A3D8F1"/>
<stop offset="1" stop-color="#E1EFF8"/>
</linearGradient>
<linearGradient id="paint36_linear" x1="2635.5" y1="1497.92" x2="1122.61" y2="-839.118" gradientUnits="userSpaceOnUse">
<stop stop-color="#52BBE8"/>
<stop offset="0.196" stop-color="#69C3EB"/>
<stop offset="0.6037" stop-color="#A3D8F1"/>
<stop offset="1" stop-color="#E1EFF8"/>
</linearGradient>
<linearGradient id="paint37_linear" x1="2419.11" y1="1638" x2="906.23" y2="-699.038" gradientUnits="userSpaceOnUse">
<stop stop-color="#52BBE8"/>
<stop offset="0.196" stop-color="#69C3EB"/>
<stop offset="0.6037" stop-color="#A3D8F1"/>
<stop offset="1" stop-color="#E1EFF8"/>
</linearGradient>
<linearGradient id="paint38_linear" x1="2406.39" y1="1646.23" x2="893.51" y2="-690.806" gradientUnits="userSpaceOnUse">
<stop stop-color="#52BBE8"/>
<stop offset="0.196" stop-color="#69C3EB"/>
<stop offset="0.6037" stop-color="#A3D8F1"/>
<stop offset="1" stop-color="#E1EFF8"/>
</linearGradient>
<linearGradient id="paint39_linear" x1="1127.77" y1="2473.96" x2="-385.119" y2="136.913" gradientUnits="userSpaceOnUse">
<stop stop-color="#52BBE8"/>
<stop offset="0.196" stop-color="#69C3EB"/>
<stop offset="0.6037" stop-color="#A3D8F1"/>
<stop offset="1" stop-color="#E1EFF8"/>
</linearGradient>
<linearGradient id="paint40_linear" x1="1336.63" y1="2338.75" x2="-176.254" y2="1.70625" gradientUnits="userSpaceOnUse">
<stop stop-color="#52BBE8"/>
<stop offset="0.196" stop-color="#69C3EB"/>
<stop offset="0.6037" stop-color="#A3D8F1"/>
<stop offset="1" stop-color="#E1EFF8"/>
</linearGradient>
<linearGradient id="paint41_linear" x1="2630.9" y1="1500.9" x2="1118.02" y2="-836.139" gradientUnits="userSpaceOnUse">
<stop stop-color="#52BBE8"/>
<stop offset="0.196" stop-color="#69C3EB"/>
<stop offset="0.6037" stop-color="#A3D8F1"/>
<stop offset="1" stop-color="#E1EFF8"/>
</linearGradient>
<linearGradient id="paint42_linear" x1="1264.38" y1="2385.52" x2="-248.501" y2="48.4763" gradientUnits="userSpaceOnUse">
<stop stop-color="#52BBE8"/>
<stop offset="0.196" stop-color="#69C3EB"/>
<stop offset="0.6037" stop-color="#A3D8F1"/>
<stop offset="1" stop-color="#E1EFF8"/>
</linearGradient>
<linearGradient id="paint43_linear" x1="1247.81" y1="2396.25" x2="-265.079" y2="59.2061" gradientUnits="userSpaceOnUse">
<stop stop-color="#52BBE8"/>
<stop offset="0.196" stop-color="#69C3EB"/>
<stop offset="0.6037" stop-color="#A3D8F1"/>
<stop offset="1" stop-color="#E1EFF8"/>
</linearGradient>
<linearGradient id="paint44_linear" x1="959.022" y1="2583.19" x2="-553.863" y2="246.151" gradientUnits="userSpaceOnUse">
<stop stop-color="#52BBE8"/>
<stop offset="0.196" stop-color="#69C3EB"/>
<stop offset="0.6037" stop-color="#A3D8F1"/>
<stop offset="1" stop-color="#E1EFF8"/>
</linearGradient>
<linearGradient id="paint45_linear" x1="2353.72" y1="1680.33" x2="840.814" y2="-656.69" gradientUnits="userSpaceOnUse">
<stop stop-color="#52BBE8"/>
<stop offset="0.196" stop-color="#69C3EB"/>
<stop offset="0.6037" stop-color="#A3D8F1"/>
<stop offset="1" stop-color="#E1EFF8"/>
</linearGradient>
<linearGradient id="paint46_linear" x1="2144.87" y1="1815.54" x2="631.98" y2="-521.502" gradientUnits="userSpaceOnUse">
<stop stop-color="#52BBE8"/>
<stop offset="0.196" stop-color="#69C3EB"/>
<stop offset="0.6037" stop-color="#A3D8F1"/>
<stop offset="1" stop-color="#E1EFF8"/>
</linearGradient>
<linearGradient id="paint47_linear" x1="2275.62" y1="1730.87" x2="762.752" y2="-606.153" gradientUnits="userSpaceOnUse">
<stop stop-color="#52BBE8"/>
<stop offset="0.196" stop-color="#69C3EB"/>
<stop offset="0.6037" stop-color="#A3D8F1"/>
<stop offset="1" stop-color="#E1EFF8"/>
</linearGradient>
<linearGradient id="paint48_linear" x1="2341" y1="1688.56" x2="828.117" y2="-648.473" gradientUnits="userSpaceOnUse">
<stop stop-color="#52BBE8"/>
<stop offset="0.196" stop-color="#69C3EB"/>
<stop offset="0.6037" stop-color="#A3D8F1"/>
<stop offset="1" stop-color="#E1EFF8"/>
</linearGradient>
<linearGradient id="paint49_linear" x1="2262.91" y1="1739.12" x2="750.031" y2="-597.924" gradientUnits="userSpaceOnUse">
<stop stop-color="#52BBE8"/>
<stop offset="0.196" stop-color="#69C3EB"/>
<stop offset="0.6037" stop-color="#A3D8F1"/>
<stop offset="1" stop-color="#E1EFF8"/>
</linearGradient>
<linearGradient id="paint50_linear" x1="1205.88" y1="2423.4" x2="-307.004" y2="86.3446" gradientUnits="userSpaceOnUse">
<stop stop-color="#52BBE8"/>
<stop offset="0.196" stop-color="#69C3EB"/>
<stop offset="0.6037" stop-color="#A3D8F1"/>
<stop offset="1" stop-color="#E1EFF8"/>
</linearGradient>
<linearGradient id="paint51_linear" x1="1271.25" y1="2381.06" x2="-241.626" y2="44.0336" gradientUnits="userSpaceOnUse">
<stop stop-color="#52BBE8"/>
<stop offset="0.196" stop-color="#69C3EB"/>
<stop offset="0.6037" stop-color="#A3D8F1"/>
<stop offset="1" stop-color="#E1EFF8"/>
</linearGradient>
<linearGradient id="paint52_linear" x1="1414.73" y1="2288.17" x2="-98.1316" y2="-48.858" gradientUnits="userSpaceOnUse">
<stop stop-color="#52BBE8"/>
<stop offset="0.196" stop-color="#69C3EB"/>
<stop offset="0.6037" stop-color="#A3D8F1"/>
<stop offset="1" stop-color="#E1EFF8"/>
</linearGradient>
<linearGradient id="paint53_linear" x1="1480.12" y1="2245.87" x2="-32.785" y2="-91.1768" gradientUnits="userSpaceOnUse">
<stop stop-color="#52BBE8"/>
<stop offset="0.196" stop-color="#69C3EB"/>
<stop offset="0.6037" stop-color="#A3D8F1"/>
<stop offset="1" stop-color="#E1EFF8"/>
</linearGradient>
</defs>
</svg>
