<svg width="158" height="36" viewBox="0 0 158 36" fill="none" xmlns="http://www.w3.org/2000/svg">
<rect x="122.5" y="0.5" width="35" height="35" rx="3.5" stroke="#CDD3E2"/>
<path d="M19.6514 20.4023H15.4814L14.5449 23H13.1914L16.9922 13.0469H18.1406L21.9482 23H20.6016L19.6514 20.4023ZM15.8779 19.3223H19.2617L17.5664 14.667L15.8779 19.3223ZM24.6826 13.8125V15.6035H26.0635V16.5811H24.6826V21.168C24.6826 21.4642 24.7441 21.6875 24.8672 21.8379C24.9902 21.9837 25.1999 22.0566 25.4961 22.0566C25.6419 22.0566 25.8424 22.0293 26.0977 21.9746V23C25.765 23.0911 25.4414 23.1367 25.127 23.1367C24.5618 23.1367 24.1357 22.9658 23.8486 22.624C23.5615 22.2822 23.418 21.7969 23.418 21.168V16.5811H22.0713V15.6035H23.418V13.8125H24.6826ZM29.2627 13.8125V15.6035H30.6436V16.5811H29.2627V21.168C29.2627 21.4642 29.3242 21.6875 29.4473 21.8379C29.5703 21.9837 29.7799 22.0566 30.0762 22.0566C30.222 22.0566 30.4225 22.0293 30.6777 21.9746V23C30.3451 23.0911 30.0215 23.1367 29.707 23.1367C29.1419 23.1367 28.7158 22.9658 28.4287 22.624C28.1416 22.2822 27.998 21.7969 27.998 21.168V16.5811H26.6514V15.6035H27.998V13.8125H29.2627ZM36.6934 23C36.6204 22.8542 36.5612 22.5944 36.5156 22.2207C35.9277 22.8314 35.2259 23.1367 34.4102 23.1367C33.681 23.1367 33.0817 22.9316 32.6123 22.5215C32.1475 22.1068 31.915 21.5827 31.915 20.9492C31.915 20.179 32.2067 19.582 32.79 19.1582C33.3779 18.7298 34.2028 18.5156 35.2646 18.5156H36.4951V17.9346C36.4951 17.4925 36.363 17.1416 36.0986 16.8818C35.8343 16.6175 35.4447 16.4854 34.9297 16.4854C34.4785 16.4854 34.1003 16.5993 33.7949 16.8271C33.4896 17.055 33.3369 17.3307 33.3369 17.6543H32.0654C32.0654 17.2852 32.1953 16.9297 32.4551 16.5879C32.7194 16.2415 33.0749 15.9681 33.5215 15.7676C33.9727 15.5671 34.4671 15.4668 35.0049 15.4668C35.8571 15.4668 36.5247 15.681 37.0078 16.1094C37.4909 16.5332 37.7415 17.1188 37.7598 17.8662V21.2705C37.7598 21.9495 37.8464 22.4896 38.0195 22.8906V23H36.6934ZM34.5947 22.0361C34.9912 22.0361 35.3672 21.9336 35.7227 21.7285C36.0781 21.5234 36.3356 21.2568 36.4951 20.9287V19.4111H35.5039C33.9544 19.4111 33.1797 19.8646 33.1797 20.7715C33.1797 21.168 33.3118 21.4779 33.5762 21.7012C33.8405 21.9245 34.18 22.0361 34.5947 22.0361ZM42.709 22.1045C43.1602 22.1045 43.5544 21.9678 43.8916 21.6943C44.2288 21.4209 44.4157 21.0791 44.4521 20.6689H45.6484C45.6257 21.0928 45.4798 21.4961 45.2109 21.8789C44.9421 22.2617 44.582 22.5671 44.1309 22.7949C43.6842 23.0228 43.2103 23.1367 42.709 23.1367C41.7018 23.1367 40.8997 22.8018 40.3027 22.1318C39.7103 21.4574 39.4141 20.5368 39.4141 19.3701V19.1582C39.4141 18.4382 39.5462 17.7979 39.8105 17.2373C40.0749 16.6768 40.4531 16.2415 40.9453 15.9316C41.4421 15.6217 42.0277 15.4668 42.7021 15.4668C43.5316 15.4668 44.2197 15.7152 44.7666 16.2119C45.318 16.7087 45.612 17.3535 45.6484 18.1465H44.4521C44.4157 17.668 44.2334 17.276 43.9053 16.9707C43.5817 16.6608 43.1807 16.5059 42.7021 16.5059C42.0596 16.5059 41.5605 16.7383 41.2051 17.2031C40.8542 17.6634 40.6787 18.3311 40.6787 19.2061V19.4453C40.6787 20.2975 40.8542 20.9538 41.2051 21.4141C41.556 21.8743 42.0573 22.1045 42.709 22.1045ZM48.335 16.499C48.8955 15.8109 49.6247 15.4668 50.5225 15.4668C52.0856 15.4668 52.874 16.3486 52.8877 18.1123V23H51.623V18.1055C51.6185 17.5723 51.4954 17.1781 51.2539 16.9229C51.0169 16.6676 50.6455 16.54 50.1396 16.54C49.7295 16.54 49.3695 16.6494 49.0596 16.8682C48.7497 17.0869 48.5081 17.374 48.335 17.7295V23H47.0703V12.5H48.335V16.499ZM64.502 19.3838C64.502 20.5094 64.2445 21.4163 63.7295 22.1045C63.2145 22.7926 62.5173 23.1367 61.6377 23.1367C60.7399 23.1367 60.0335 22.8519 59.5186 22.2822V25.8438H58.2539V15.6035H59.4092L59.4707 16.4238C59.9857 15.7858 60.7012 15.4668 61.6172 15.4668C62.5059 15.4668 63.2077 15.8018 63.7227 16.4717C64.2422 17.1416 64.502 18.0736 64.502 19.2676V19.3838ZM63.2373 19.2402C63.2373 18.4062 63.0596 17.7477 62.7041 17.2646C62.3486 16.7816 61.861 16.54 61.2412 16.54C60.4756 16.54 59.9014 16.8796 59.5186 17.5586V21.0928C59.8968 21.7673 60.4756 22.1045 61.2549 22.1045C61.861 22.1045 62.3418 21.8652 62.6973 21.3867C63.0573 20.9036 63.2373 20.1882 63.2373 19.2402ZM70.6816 23C70.6087 22.8542 70.5495 22.5944 70.5039 22.2207C69.916 22.8314 69.2142 23.1367 68.3984 23.1367C67.6693 23.1367 67.07 22.9316 66.6006 22.5215C66.1357 22.1068 65.9033 21.5827 65.9033 20.9492C65.9033 20.179 66.195 19.582 66.7783 19.1582C67.3662 18.7298 68.1911 18.5156 69.2529 18.5156H70.4834V17.9346C70.4834 17.4925 70.3512 17.1416 70.0869 16.8818C69.8226 16.6175 69.4329 16.4854 68.918 16.4854C68.4668 16.4854 68.0885 16.5993 67.7832 16.8271C67.4779 17.055 67.3252 17.3307 67.3252 17.6543H66.0537C66.0537 17.2852 66.1836 16.9297 66.4434 16.5879C66.7077 16.2415 67.0632 15.9681 67.5098 15.7676C67.9609 15.5671 68.4554 15.4668 68.9932 15.4668C69.8454 15.4668 70.513 15.681 70.9961 16.1094C71.4792 16.5332 71.7298 17.1188 71.748 17.8662V21.2705C71.748 21.9495 71.8346 22.4896 72.0078 22.8906V23H70.6816ZM68.583 22.0361C68.9795 22.0361 69.3555 21.9336 69.7109 21.7285C70.0664 21.5234 70.3239 21.2568 70.4834 20.9287V19.4111H69.4922C67.9427 19.4111 67.168 19.8646 67.168 20.7715C67.168 21.168 67.3001 21.4779 67.5645 21.7012C67.8288 21.9245 68.1683 22.0361 68.583 22.0361ZM76.041 21.1475L77.7637 15.6035H79.1172L76.1436 24.1416C75.6833 25.3721 74.9518 25.9873 73.9492 25.9873L73.71 25.9668L73.2383 25.8779V24.8525L73.5801 24.8799C74.0085 24.8799 74.3411 24.7933 74.5781 24.6201C74.8197 24.4469 75.0179 24.1302 75.1729 23.6699L75.4531 22.918L72.8145 15.6035H74.1953L76.041 21.1475ZM81.4414 15.6035L81.4756 16.4238C82.0179 15.7858 82.7493 15.4668 83.6699 15.4668C84.7044 15.4668 85.4085 15.8633 85.7822 16.6562C86.0283 16.3008 86.3473 16.0137 86.7393 15.7949C87.1357 15.5762 87.6029 15.4668 88.1406 15.4668C89.763 15.4668 90.5879 16.3258 90.6152 18.0439V23H89.3506V18.1191C89.3506 17.5905 89.2298 17.1963 88.9883 16.9365C88.7467 16.6722 88.3411 16.54 87.7715 16.54C87.3021 16.54 86.9124 16.6813 86.6025 16.9639C86.2926 17.2419 86.1126 17.6178 86.0625 18.0918V23H84.791V18.1533C84.791 17.0778 84.2646 16.54 83.2119 16.54C82.3825 16.54 81.8151 16.8932 81.5098 17.5996V23H80.2451V15.6035H81.4414ZM95.5986 23.1367C94.596 23.1367 93.7803 22.8086 93.1514 22.1523C92.5225 21.4915 92.208 20.6097 92.208 19.5068V19.2744C92.208 18.5407 92.347 17.8867 92.625 17.3125C92.9076 16.7337 93.2995 16.2826 93.8008 15.959C94.3066 15.6309 94.8535 15.4668 95.4414 15.4668C96.403 15.4668 97.1504 15.7835 97.6836 16.417C98.2168 17.0505 98.4834 17.9574 98.4834 19.1377V19.6641H93.4727C93.4909 20.3932 93.7028 20.9834 94.1084 21.4346C94.5186 21.8812 95.0381 22.1045 95.667 22.1045C96.1136 22.1045 96.4919 22.0133 96.8018 21.8311C97.1117 21.6488 97.3828 21.4072 97.6152 21.1064L98.3877 21.708C97.7679 22.6605 96.8382 23.1367 95.5986 23.1367ZM95.4414 16.5059C94.931 16.5059 94.5026 16.6927 94.1562 17.0664C93.8099 17.4355 93.5957 17.9551 93.5137 18.625H97.2188V18.5293C97.1823 17.8867 97.0091 17.39 96.6992 17.0391C96.3893 16.6836 95.9701 16.5059 95.4414 16.5059ZM101.149 15.6035L101.19 16.5332C101.756 15.8223 102.494 15.4668 103.405 15.4668C104.968 15.4668 105.757 16.3486 105.771 18.1123V23H104.506V18.1055C104.501 17.5723 104.378 17.1781 104.137 16.9229C103.9 16.6676 103.528 16.54 103.022 16.54C102.612 16.54 102.252 16.6494 101.942 16.8682C101.632 17.0869 101.391 17.374 101.218 17.7295V23H99.9531V15.6035H101.149ZM109.394 13.8125V15.6035H110.774V16.5811H109.394V21.168C109.394 21.4642 109.455 21.6875 109.578 21.8379C109.701 21.9837 109.911 22.0566 110.207 22.0566C110.353 22.0566 110.553 22.0293 110.809 21.9746V23C110.476 23.0911 110.152 23.1367 109.838 23.1367C109.273 23.1367 108.847 22.9658 108.56 22.624C108.272 22.2822 108.129 21.7969 108.129 21.168V16.5811H106.782V15.6035H108.129V13.8125H109.394Z" fill="#6F7582"/>
<path fill-rule="evenodd" clip-rule="evenodd" d="M139 18V27H140V18H149V17H140V8H139V17H130V18H139Z" fill="#CDD3E2"/>
</svg>
